<svg width="97" height="26" viewBox="0 0 97 26" fill="none" xmlns="http://www.w3.org/2000/svg">
<path d="M36.5169 19.2282C36.4918 18.7757 36.4787 18.3427 36.4787 17.9327V12.6219C36.4837 11.9848 36.3797 11.3515 36.1712 10.7495C35.9743 10.1842 35.6582 9.66801 35.2442 9.23581C34.7992 8.78605 34.2604 8.44011 33.6662 8.22271C32.9388 7.95979 32.1691 7.83371 31.3958 7.85084C30.4462 7.84345 29.5033 8.00862 28.6128 8.33831C27.8481 8.61526 27.142 9.03285 26.531 9.56951C26.5011 9.59704 26.4828 9.63497 26.48 9.67552C26.4771 9.71608 26.4899 9.75618 26.5157 9.78761L27.5931 11.0799C27.6071 11.0965 27.6243 11.11 27.6437 11.1197C27.6631 11.1294 27.6843 11.135 27.7059 11.1363C27.7276 11.1375 27.7492 11.1343 27.7696 11.1268C27.7899 11.1194 27.8086 11.1079 27.8243 11.093C28.2388 10.7179 28.7132 10.4149 29.2278 10.1966C29.8388 9.93102 30.4984 9.79582 31.1646 9.79961C32.0719 9.79961 32.7989 10.0177 33.3456 10.4539C33.8923 10.8901 34.1661 11.5615 34.1668 12.4681V12.6448C34.1668 12.6654 34.1627 12.6858 34.1548 12.7049C34.1469 12.7239 34.1354 12.7412 34.1208 12.7558C34.1062 12.7704 34.0889 12.782 34.0698 12.7899C34.0508 12.7977 34.0304 12.8018 34.0097 12.8018C33.0356 12.8062 32.0701 12.8491 31.1133 12.9305C30.1878 12.9971 29.2743 13.1803 28.3947 13.4758C27.6529 13.7185 26.9829 14.1416 26.4448 14.7069C25.9483 15.2471 25.7003 15.9785 25.7011 16.9011C25.7011 17.6026 25.8421 18.1926 26.1242 18.671C26.3886 19.1304 26.7522 19.5249 27.1885 19.8259C27.6217 20.1191 28.1042 20.3319 28.6128 20.454C29.1049 20.5807 29.6106 20.647 30.1188 20.6514C31.0428 20.6514 31.8425 20.4722 32.5179 20.1138C33.1933 19.754 33.77 19.2338 34.1973 18.599H34.2747C34.2752 19.144 34.3344 19.6873 34.4514 20.2195C34.4595 20.2548 34.4794 20.2863 34.5077 20.3089C34.536 20.3315 34.5711 20.3438 34.6074 20.3438H36.4612C36.4844 20.3439 36.5074 20.3389 36.5284 20.3291C36.5494 20.3193 36.568 20.305 36.5829 20.2872C36.5978 20.2694 36.6086 20.2485 36.6145 20.2261C36.6204 20.2037 36.6213 20.1802 36.6172 20.1574C36.5646 19.85 36.5311 19.5397 36.5169 19.2282V19.2282ZM34.1701 15.1879C34.1701 16.2137 33.8665 17.0643 33.2595 17.7397C32.6524 18.4151 31.7844 18.7531 30.6553 18.7539C30.3538 18.7543 30.0531 18.724 29.7578 18.6634C29.4748 18.6071 29.2047 18.4984 28.9617 18.3427C28.7265 18.1932 28.5291 17.9913 28.3848 17.7528C28.2309 17.4794 28.1555 17.1688 28.1667 16.8553C28.157 16.625 28.198 16.3953 28.2867 16.1826C28.3755 15.9699 28.5099 15.7792 28.6804 15.6241C29.0545 15.2986 29.4974 15.0619 29.9759 14.9316C30.5452 14.7683 31.13 14.6649 31.7207 14.623C32.362 14.5714 32.9821 14.5459 33.5812 14.5466H34.0174C34.0593 14.5466 34.0995 14.5633 34.1292 14.593C34.1589 14.6226 34.1755 14.6628 34.1755 14.7048L34.1701 15.1879ZM19.1896 12.5412C17.0205 13.0679 14.0707 13.4648 9.98668 13.4648C5.8078 13.4648 2.95282 13.0679 0.78377 12.5412C-0.798576 12.1573 -0.78658 4.50622 8.63552 3.82792C9.18078 3.08309 8.87979 1.6207 8.53955 1.21067C8.52435 1.18951 8.5157 1.16436 8.51467 1.13833C8.51363 1.1123 8.52026 1.08654 8.53373 1.06424C8.5472 1.04195 8.56692 1.0241 8.59044 1.01291C8.61397 1.00171 8.64026 0.997673 8.66605 1.00129C8.857 1.0269 9.04367 1.07788 9.22113 1.15287C10.6693 1.76792 11.3847 3.45932 11.5428 3.84972C20.7588 4.61854 20.7599 12.1595 19.1896 12.5412ZM18.8264 14.5619C18.966 16.6252 18.8144 23.0494 11.3018 24.4911C10.8973 24.8357 10.2255 25.6274 9.98122 25.6231C9.73694 25.6187 9.06518 24.8357 8.6606 24.4911C1.0913 23.1934 0.984427 16.6394 1.13601 14.5586C1.14144 14.4831 1.16294 14.4096 1.19908 14.343C1.23521 14.2764 1.28514 14.2183 1.34554 14.1726C1.40593 14.1268 1.47539 14.0945 1.54927 14.0778C1.62316 14.0611 1.69976 14.0603 1.77396 14.0755C3.01388 14.3285 6.13605 14.8149 9.97795 14.8149C13.8199 14.8149 16.9453 14.3285 18.1863 14.0755C18.2609 14.0601 18.3379 14.0608 18.4122 14.0777C18.4865 14.0945 18.5563 14.127 18.617 14.1731C18.6776 14.2192 18.7277 14.2778 18.7638 14.3448C18.8 14.4119 18.8213 14.4859 18.8264 14.5619V14.5619ZM85.1039 10.8781C85.2877 11.5027 85.3788 12.1508 85.3744 12.8018V20.1846C85.3744 20.2055 85.3702 20.2261 85.3622 20.2454C85.3542 20.2647 85.3425 20.2821 85.3277 20.2968C85.3129 20.3115 85.2953 20.3232 85.276 20.331C85.2567 20.3389 85.236 20.3429 85.2151 20.3428H83.1181C83.0761 20.3428 83.0359 20.3261 83.0063 20.2964C82.9766 20.2668 82.96 20.2266 82.96 20.1846V13.5968C82.962 13.124 82.9233 12.6519 82.8444 12.1857C82.7777 11.7695 82.6343 11.3694 82.4212 11.0057C82.2152 10.6634 81.9236 10.3808 81.575 10.1857C81.2166 9.97991 80.7549 9.87703 80.19 9.87703C79.7412 9.86609 79.2959 9.95879 78.8887 10.1479C78.4814 10.3371 78.1233 10.6175 77.8421 10.9676C77.2344 11.6946 76.9308 12.6651 76.9316 13.8792V20.1846C76.9316 20.2266 76.9149 20.2668 76.8852 20.2964C76.8556 20.3261 76.8154 20.3428 76.7734 20.3428H74.6785C74.6366 20.3428 74.5964 20.3261 74.5667 20.2964C74.5371 20.2668 74.5204 20.2266 74.5204 20.1846V10.8062C74.5204 10.4812 74.5117 10.0624 74.4942 9.54988C74.4801 9.11367 74.4583 8.71345 74.4321 8.36012C74.4303 8.33842 74.433 8.31659 74.4401 8.296C74.4471 8.27541 74.4584 8.25652 74.4732 8.24052C74.488 8.22452 74.5059 8.21177 74.5258 8.20307C74.5458 8.19437 74.5674 8.18992 74.5891 8.19H76.5586C76.5976 8.18979 76.6352 8.20407 76.6642 8.23006C76.6933 8.25606 76.7116 8.29192 76.7156 8.33067C76.7418 8.60221 76.7625 8.90211 76.7778 9.22817C76.7938 9.61276 76.8021 9.93374 76.8029 10.1911H76.8803C77.0407 9.85624 77.2527 9.54861 77.5084 9.27943C77.7786 8.9933 78.0847 8.74332 78.419 8.53569C78.7705 8.3179 79.1503 8.14948 79.5477 8.03514C79.965 7.91521 80.3971 7.855 80.8313 7.8563C81.6179 7.8563 82.2933 7.98861 82.8574 8.25325C83.3995 8.50184 83.881 8.86539 84.2686 9.31869C84.6522 9.77491 84.9367 10.306 85.1039 10.8781V10.8781ZM96.7638 16.7528C96.7638 17.4703 96.6267 18.0774 96.3526 18.5739C96.0888 19.0592 95.7154 19.4763 95.2621 19.792C94.7928 20.1162 94.2656 20.3472 93.7092 20.4725C93.1208 20.6098 92.5185 20.6786 91.9142 20.6775C90.9855 20.6763 90.066 20.4933 89.2075 20.1388C88.3939 19.8133 87.674 19.2905 87.1127 18.6176C87.0871 18.5857 87.0749 18.5452 87.0786 18.5046C87.0823 18.4639 87.1015 18.4262 87.1323 18.3995L88.6023 17.1497C88.6185 17.1357 88.6373 17.1251 88.6577 17.1187C88.6782 17.1123 88.6997 17.1101 88.7209 17.1124C88.7422 17.1146 88.7628 17.1213 88.7814 17.1318C88.8 17.1423 88.8163 17.1566 88.8291 17.1737C89.1671 17.6134 89.5931 17.9778 90.08 18.2435C90.6546 18.5691 91.305 18.7373 91.9655 18.731C92.2626 18.7323 92.559 18.7023 92.8499 18.6415C93.121 18.586 93.3812 18.4862 93.6198 18.346C93.8633 18.2095 94.0634 18.0072 94.1972 17.7623C94.3311 17.5173 94.3932 17.2397 94.3766 16.9611C94.3766 16.3962 94.1073 15.977 93.5685 15.7037C93.0298 15.4303 92.2388 15.1741 91.1956 14.9349C90.7855 14.8324 90.3708 14.708 89.9513 14.5619C89.5416 14.4221 89.1563 14.219 88.8095 13.9599C88.4666 13.7018 88.1826 13.3735 87.9764 12.997C87.7497 12.5578 87.6393 12.0679 87.6557 11.5739C87.6398 10.9888 87.7767 10.4096 88.0527 9.89339C88.3075 9.4349 88.6628 9.04007 89.092 8.73853C89.5363 8.43184 90.0314 8.20625 90.5543 8.07222C91.107 7.92628 91.6763 7.85296 92.2479 7.85412C93.116 7.85358 93.9754 8.02789 94.7747 8.36666C95.4881 8.65116 96.1105 9.12469 96.5751 9.73636C96.5984 9.76866 96.6085 9.80858 96.6034 9.84806C96.5983 9.88753 96.5785 9.92362 96.5478 9.94901L95.1302 11.1486C95.1136 11.1628 95.0942 11.1735 95.0733 11.1799C95.0523 11.1863 95.0303 11.1883 95.0086 11.1857C94.9869 11.1831 94.9659 11.1761 94.947 11.165C94.9282 11.1539 94.9118 11.139 94.899 11.1213C94.6214 10.7301 94.259 10.4065 93.839 10.1747C93.3299 9.88764 92.7538 9.74052 92.1694 9.74835C91.8932 9.7488 91.6179 9.77915 91.3482 9.83887C91.0909 9.89235 90.844 9.98777 90.6176 10.1213C90.4114 10.2419 90.2357 10.4084 90.104 10.6077C89.9701 10.8277 89.9033 11.082 89.912 11.3394C89.9035 11.5765 89.9644 11.811 90.0875 12.0139C90.2105 12.2168 90.3903 12.3792 90.6045 12.4812C91.0662 12.7284 91.7568 12.9548 92.6765 13.1606C93.2252 13.288 93.765 13.4508 94.2926 13.6481C94.7566 13.8187 95.1931 14.0564 95.5882 14.3536C95.9459 14.624 96.2397 14.9699 96.4486 15.3667C96.6645 15.7963 96.7726 16.272 96.7638 16.7528V16.7528ZM72.6491 8.07986L72.5607 9.99263C72.5599 10.0151 72.5542 10.0372 72.544 10.0573C72.5339 10.0774 72.5195 10.0951 72.5019 10.1091C72.4843 10.1232 72.4639 10.1333 72.4421 10.1388C72.4203 10.1443 72.3975 10.145 72.3754 10.1409C72.0705 10.0807 71.7603 10.0511 71.4495 10.0526C70.9268 10.0397 70.4084 10.1495 69.9359 10.3732C69.5213 10.5764 69.1575 10.8701 68.8715 11.2326C68.5836 11.6029 68.3699 12.0254 68.2423 12.4768C68.1044 12.9565 68.0354 13.4533 68.0373 13.9523V20.1846C68.0373 20.2266 68.0206 20.2668 67.991 20.2964C67.9613 20.3261 67.9211 20.3428 67.8791 20.3428H65.7788C65.7369 20.3428 65.6966 20.3261 65.667 20.2964C65.6373 20.2668 65.6207 20.2266 65.6207 20.1846V10.8062C65.6207 10.4812 65.612 10.0624 65.5945 9.54988C65.5803 9.11367 65.5596 8.71345 65.5323 8.36012C65.5305 8.33842 65.5332 8.31659 65.5403 8.296C65.5474 8.27541 65.5587 8.25652 65.5734 8.24052C65.5882 8.22452 65.6061 8.21177 65.6261 8.20307C65.6461 8.19437 65.6676 8.18992 65.6894 8.19H67.6589C67.6978 8.18979 67.7355 8.20407 67.7645 8.23006C67.7935 8.25606 67.8118 8.29192 67.8159 8.33067C67.8421 8.60439 67.8628 8.91301 67.8781 9.25434C67.8944 9.65566 67.9042 9.98499 67.9042 10.2358H67.9806C68.3125 9.53049 68.8339 8.9313 69.4866 8.50516C70.1438 8.06908 70.9171 7.84107 71.7058 7.85084C71.979 7.84688 72.2519 7.87063 72.5204 7.92173C72.557 7.92887 72.5899 7.9486 72.6134 7.9775C72.6369 8.00639 72.6495 8.04261 72.6491 8.07986V8.07986ZM49.53 18.6699C49.56 18.6976 49.5779 18.7358 49.5802 18.7765C49.5824 18.8172 49.5687 18.8572 49.542 18.888C49.0341 19.4403 48.4134 19.8769 47.722 20.1683C46.8934 20.5138 46.0023 20.6842 45.1047 20.6688C44.2155 20.6781 43.3324 20.5217 42.5005 20.2075C41.7333 19.9169 41.0315 19.4765 40.4362 18.912C39.8451 18.3449 39.3771 17.6622 39.061 16.9065C38.7174 16.0686 38.5471 15.1697 38.5605 14.2642C38.5489 13.3682 38.7145 12.4787 39.048 11.6469C39.3568 10.8851 39.8198 10.1953 40.4078 9.62076C41.0002 9.04867 41.703 8.60339 42.4733 8.31214C43.2965 7.99958 44.1707 7.84315 45.0513 7.85084C45.9274 7.85525 46.7943 8.02931 47.6042 8.36339C48.348 8.6493 49.0072 9.11903 49.5202 9.72872C49.5451 9.76125 49.5564 9.80216 49.5517 9.84284C49.547 9.88351 49.5267 9.92079 49.4951 9.94683L48.0033 11.1562C47.9872 11.1697 47.9685 11.1797 47.9483 11.1857C47.9282 11.1917 47.9071 11.1936 47.8862 11.1913C47.8653 11.189 47.8451 11.1824 47.8268 11.1721C47.8085 11.1617 47.7925 11.1478 47.7798 11.1311C47.4948 10.7693 47.1317 10.4767 46.7176 10.2751C46.2104 10.0115 45.6468 9.87488 45.0753 9.87703C44.4953 9.86568 43.9206 9.98846 43.3959 10.2358C42.9189 10.4671 42.4952 10.795 42.1516 11.1987C41.8037 11.6105 41.5379 12.085 41.3686 12.5968C41.0094 13.6794 41.0094 14.849 41.3686 15.9316C41.5379 16.4434 41.8037 16.9179 42.1516 17.3297C42.4975 17.7356 42.9257 18.0634 43.4079 18.2915C43.9386 18.5287 44.5135 18.6514 45.0949 18.6514C45.6763 18.6514 46.2511 18.5287 46.7819 18.2915C47.2182 18.0896 47.6075 17.7987 47.9248 17.4376C47.9528 17.408 47.9912 17.3904 48.0319 17.3886C48.0726 17.3868 48.1124 17.4008 48.1429 17.4278L49.53 18.6699ZM61.5618 9.64148C60.958 9.06877 60.2477 8.62008 59.4712 8.32086C57.8017 7.68831 55.9586 7.68831 54.2891 8.32086C53.5155 8.61817 52.8092 9.06719 52.2116 9.64148C51.6242 10.2146 51.1574 10.8994 50.8387 11.6557C50.4979 12.4719 50.3279 13.3492 50.3392 14.2337C50.3286 15.1223 50.4985 16.0038 50.8387 16.8247C51.1567 17.5891 51.6234 18.2826 52.2116 18.8651C52.8061 19.4465 53.513 19.9003 54.2891 20.1988C55.9586 20.8314 57.8017 20.8314 59.4712 20.1988C60.2501 19.8983 60.9609 19.4448 61.5618 18.8651C62.1544 18.2861 62.6243 17.5937 62.9434 16.8291C63.2836 16.0081 63.4535 15.1266 63.4429 14.238C63.4542 13.3536 63.2842 12.4763 62.9434 11.66C62.6219 10.9013 62.1492 10.216 61.5541 9.64584L61.5618 9.64148ZM60.6534 15.9142C60.4816 16.4277 60.2157 16.9047 59.8693 17.3209C59.5203 17.7339 59.0852 18.0655 58.5945 18.2926C58.0459 18.5293 57.4547 18.6514 56.8573 18.6514C56.2598 18.6514 55.6686 18.5293 55.12 18.2926C54.6297 18.0654 54.195 17.7338 53.8463 17.3209C53.4999 16.9047 53.234 16.4277 53.0622 15.9142C52.7017 14.8348 52.7017 13.6674 53.0622 12.5881C53.2325 12.0778 53.4986 11.6048 53.8463 11.1944C54.1979 10.7879 54.6321 10.4611 55.12 10.2358C55.6686 9.99912 56.2598 9.87702 56.8573 9.87702C57.4547 9.87702 58.0459 9.99912 58.5945 10.2358C59.0827 10.4611 59.5173 10.7879 59.8693 11.1944C60.217 11.6048 60.4831 12.0778 60.6534 12.5881C61.0139 13.6674 61.0139 14.8348 60.6534 15.9142Z" fill="#74C947"/>
</svg>
