<svg width="97" height="34" viewBox="0 0 97 34" fill="none" xmlns="http://www.w3.org/2000/svg">
<g clip-path="url(#clip0_1009_2854)">
<path d="M36.6058 19.5072C36.5807 19.0478 36.5676 18.6081 36.5676 18.1919V12.7998C36.5726 12.1529 36.4683 11.5099 36.2593 10.8987C36.0619 10.3248 35.7451 9.80068 35.33 9.36187C34.884 8.90522 34.3439 8.55399 33.7482 8.33326C33.019 8.06632 32.2475 7.93831 31.4723 7.9557C30.5204 7.9482 29.5752 8.11589 28.6825 8.45063C27.9159 8.73182 27.2081 9.1558 26.5956 9.70067C26.5657 9.72863 26.5473 9.76714 26.5445 9.80831C26.5416 9.84949 26.5544 9.8902 26.5803 9.92211L27.6603 11.2342C27.6743 11.251 27.6916 11.2647 27.711 11.2746C27.7305 11.2844 27.7517 11.2901 27.7734 11.2914C27.7951 11.2927 27.8168 11.2894 27.8372 11.2818C27.8576 11.2743 27.8763 11.2626 27.8921 11.2475C28.3076 10.8666 28.7831 10.559 29.299 10.3374C29.9115 10.0677 30.5727 9.93045 31.2405 9.9343C32.15 9.9343 32.8788 10.1557 33.4268 10.5986C33.9749 11.0415 34.2493 11.7232 34.25 12.6436V12.823C34.25 12.844 34.2459 12.8647 34.238 12.8841C34.2301 12.9033 34.2185 12.9209 34.2039 12.9357C34.1893 12.9506 34.1719 12.9623 34.1528 12.9704C34.1337 12.9783 34.1133 12.9824 34.0925 12.9824C33.1161 12.9869 32.1482 13.0305 31.1891 13.1131C30.2613 13.1807 29.3456 13.3667 28.4639 13.6668C27.7203 13.9132 27.0486 14.3427 26.5092 14.9167C26.0115 15.4652 25.7629 16.2078 25.7637 17.1445C25.7637 17.8567 25.905 18.4557 26.1878 18.9415C26.4529 19.4079 26.8174 19.8084 27.2547 20.114C27.689 20.4117 28.1727 20.6278 28.6825 20.7518C29.1758 20.8804 29.6827 20.9477 30.1922 20.9522C31.1184 20.9522 31.9201 20.7702 32.5971 20.4064C33.2742 20.041 33.8523 19.5129 34.2806 18.8684H34.3582C34.3587 19.4217 34.418 19.9733 34.5353 20.5137C34.5434 20.5495 34.5634 20.5815 34.5918 20.6044C34.6201 20.6274 34.6553 20.6399 34.6917 20.6399H36.55C36.5733 20.64 36.5963 20.6349 36.6174 20.625C36.6384 20.615 36.6571 20.6005 36.672 20.5824C36.6869 20.5643 36.6978 20.5431 36.7037 20.5204C36.7096 20.4976 36.7105 20.4738 36.7064 20.4506C36.6537 20.1385 36.6201 19.8235 36.6058 19.5072ZM34.2533 15.4051C34.2533 16.4466 33.949 17.3102 33.3405 17.9959C32.7319 18.6817 31.8618 19.0248 30.73 19.0256C30.4277 19.026 30.1263 18.9953 29.8303 18.9338C29.5466 18.8766 29.2758 18.7662 29.0322 18.6081C28.7965 18.4564 28.5986 18.2514 28.4539 18.0092C28.2997 17.7316 28.2241 17.4163 28.2353 17.098C28.2256 16.8642 28.2667 16.6309 28.3556 16.415C28.4446 16.199 28.5793 16.0054 28.7503 15.8479C29.1253 15.5175 29.5693 15.2771 30.0489 15.1448C30.6196 14.979 31.2058 14.8741 31.798 14.8315C32.4408 14.7791 33.0624 14.7532 33.663 14.7539H34.1003C34.1423 14.7539 34.1826 14.7709 34.2123 14.8011C34.2421 14.8311 34.2587 14.8719 34.2587 14.9146L34.2533 15.4051ZM19.2363 12.7178C17.062 13.2526 14.105 13.6556 10.011 13.6556C5.82195 13.6556 2.96001 13.2526 0.785679 12.7178C-0.800521 12.3281 -0.788496 4.55989 8.65655 3.8712C9.20314 3.11497 8.90142 1.6302 8.56035 1.21389C8.54511 1.19241 8.53644 1.16687 8.53541 1.14045C8.53437 1.11402 8.54101 1.08786 8.55452 1.06522C8.56802 1.04259 8.58779 1.02447 8.61136 1.01311C8.63495 1.00173 8.66131 0.997636 8.68716 1.00131C8.87857 1.02731 9.0657 1.07907 9.24359 1.15521C10.6953 1.77967 11.4124 3.49696 11.5709 3.89334C20.8094 4.67392 20.8105 12.3303 19.2363 12.7178ZM18.8723 14.7695C19.0122 16.8644 18.8602 23.3869 11.3293 24.8507C10.9238 25.2005 10.2504 26.0043 10.0055 26C9.76066 25.9955 9.08726 25.2005 8.6817 24.8507C1.09396 23.5331 0.986825 16.8788 1.13878 14.7661C1.14422 14.6895 1.16577 14.6148 1.202 14.5472C1.23822 14.4796 1.28827 14.4206 1.34882 14.3742C1.40935 14.3277 1.47898 14.2949 1.55304 14.278C1.62711 14.261 1.7039 14.2602 1.77828 14.2756C3.02122 14.5325 6.151 15.0264 10.0023 15.0264C13.8536 15.0264 16.9866 14.5325 18.2306 14.2756C18.3054 14.26 18.3826 14.2607 18.457 14.2779C18.5315 14.2949 18.6015 14.3279 18.6623 14.3747C18.7231 14.4215 18.7733 14.481 18.8095 14.5491C18.8458 14.6172 18.8671 14.6923 18.8723 14.7695ZM85.3112 11.0293C85.4954 11.6635 85.5868 12.3215 85.5824 12.9824V20.4782C85.5824 20.4995 85.5781 20.5204 85.5701 20.54C85.5621 20.5596 85.5504 20.5772 85.5355 20.5922C85.5207 20.6071 85.5031 20.619 85.4837 20.6269C85.4644 20.6349 85.4436 20.639 85.4227 20.6389H83.3206C83.2785 20.6389 83.2382 20.6219 83.2085 20.5918C83.1787 20.5617 83.1621 20.5209 83.1621 20.4782V13.7896C83.1641 13.3096 83.1253 12.8302 83.0462 12.3569C82.9793 11.9343 82.8356 11.5281 82.622 11.1588C82.4155 10.8113 82.1231 10.5244 81.7737 10.3263C81.4144 10.1174 80.9516 10.0129 80.3853 10.0129C79.9354 10.0018 79.4891 10.0959 79.0809 10.2879C78.6726 10.48 78.3136 10.7647 78.0317 11.1202C77.4225 11.8583 77.1182 12.8436 77.119 14.0763V20.4782C77.119 20.5209 77.1023 20.5617 77.0725 20.5918C77.0428 20.6219 77.0025 20.6389 76.9604 20.6389H74.8604C74.8184 20.6389 74.7781 20.6219 74.7483 20.5918C74.7187 20.5617 74.7019 20.5209 74.7019 20.4782V10.9563C74.7019 10.6263 74.6932 10.2011 74.6757 9.68074C74.6615 9.23786 74.6397 8.83151 74.6134 8.47277C74.6116 8.45074 74.6143 8.42858 74.6214 8.40767C74.6284 8.38677 74.6398 8.36759 74.6546 8.35134C74.6694 8.3351 74.6874 8.32215 74.7073 8.31332C74.7274 8.30449 74.749 8.29997 74.7708 8.30005H76.7451C76.7842 8.29984 76.8219 8.31433 76.8509 8.34072C76.8801 8.36712 76.8985 8.40353 76.9025 8.44287C76.9287 8.71857 76.9495 9.02306 76.9648 9.35411C76.9809 9.74459 76.9892 10.0705 76.99 10.3318H77.0676C77.2284 9.99179 77.4409 9.67945 77.6972 9.40615C77.9681 9.11564 78.2749 8.86184 78.61 8.65103C78.9624 8.42991 79.3431 8.25891 79.7415 8.14282C80.1598 8.02105 80.5929 7.95992 81.0282 7.96124C81.8167 7.96124 82.4937 8.09558 83.0592 8.36427C83.6026 8.61666 84.0853 8.98578 84.4739 9.44602C84.8584 9.90922 85.1436 10.4484 85.3112 11.0293ZM96.9995 16.9939C96.9995 17.7224 96.8621 18.3388 96.5873 18.8429C96.3229 19.3356 95.9485 19.7591 95.4941 20.0796C95.0237 20.4088 94.4952 20.6433 93.9375 20.7705C93.3476 20.9099 92.7439 20.9798 92.1381 20.9787C91.2071 20.9775 90.2854 20.7917 89.4248 20.4317C88.6092 20.1013 87.8876 19.5705 87.3249 18.8873C87.2992 18.8549 87.287 18.8137 87.2907 18.7725C87.2944 18.7312 87.3137 18.6929 87.3445 18.6658L88.8181 17.3969C88.8344 17.3827 88.8532 17.3719 88.8737 17.3654C88.8942 17.3589 88.9158 17.3567 88.937 17.359C88.9584 17.3613 88.979 17.3681 88.9977 17.3787C89.0163 17.3894 89.0326 17.4039 89.0455 17.4213C89.3843 17.8677 89.8113 18.2377 90.2994 18.5074C90.8754 18.838 91.5274 19.0088 92.1895 19.0024C92.4873 19.0037 92.7845 18.9733 93.0761 18.9115C93.3478 18.8552 93.6087 18.7538 93.8478 18.6115C94.0919 18.4729 94.2925 18.2675 94.4266 18.0189C94.5609 17.7701 94.6231 17.4883 94.6065 17.2054C94.6065 16.6319 94.3365 16.2062 93.7964 15.9288C93.2564 15.6512 92.4635 15.391 91.4177 15.1482C91.0066 15.0441 90.5909 14.9178 90.1704 14.7695C89.7597 14.6275 89.3735 14.4213 89.0258 14.1583C88.6821 13.8962 88.3974 13.5629 88.1907 13.1806C87.9634 12.7347 87.8528 12.2373 87.8692 11.7357C87.8533 11.1417 87.9905 10.5536 88.2672 10.0295C88.5226 9.564 88.8788 9.16313 89.309 8.85698C89.7544 8.54559 90.2507 8.31655 90.7749 8.18047C91.3289 8.03229 91.8996 7.95785 92.4726 7.95903C93.3428 7.95848 94.2043 8.13546 95.0055 8.47941C95.7207 8.76827 96.3446 9.24905 96.8103 9.87008C96.8337 9.90287 96.8438 9.9434 96.8387 9.98349C96.8336 10.0236 96.8137 10.0602 96.783 10.086L95.3619 11.3039C95.3453 11.3184 95.3258 11.3292 95.3049 11.3357C95.2838 11.3422 95.2618 11.3442 95.24 11.3416C95.2183 11.339 95.1972 11.3319 95.1783 11.3206C95.1594 11.3093 95.143 11.2942 95.1302 11.2762C94.8519 10.879 94.4886 10.5505 94.0676 10.3151C93.5572 10.0237 92.9797 9.8743 92.3939 9.88225C92.117 9.88271 91.8411 9.91352 91.5707 9.97416C91.3128 10.0285 91.0653 10.1253 90.8383 10.2609C90.6316 10.3834 90.4555 10.5524 90.3235 10.7548C90.1892 10.9781 90.1223 11.2363 90.131 11.4977C90.1225 11.7384 90.1835 11.9765 90.3069 12.1825C90.4302 12.3885 90.6105 12.5534 90.8252 12.6569C91.288 12.9079 91.9803 13.1378 92.9022 13.3467C93.4523 13.4761 93.9934 13.6414 94.5223 13.8417C94.9874 14.0149 95.425 14.2562 95.821 14.558C96.1796 14.8325 96.4741 15.1837 96.6835 15.5866C96.9 16.0228 97.0083 16.5058 96.9995 16.9939ZM72.8261 8.18822L72.7374 10.1303C72.7366 10.1531 72.7309 10.1755 72.7207 10.1959C72.7106 10.2163 72.6961 10.2343 72.6785 10.2485C72.6609 10.2628 72.6404 10.2731 72.6186 10.2787C72.5967 10.2843 72.5738 10.285 72.5517 10.2808C72.246 10.2197 71.9351 10.1896 71.6235 10.1912C71.0996 10.1781 70.5799 10.2895 70.1062 10.5167C69.6906 10.723 69.326 11.0212 69.0393 11.3892C68.7507 11.7652 68.5364 12.1942 68.4085 12.6525C68.2703 13.1395 68.2011 13.6439 68.203 14.1505V20.4782C68.203 20.5209 68.1863 20.5617 68.1566 20.5918C68.1268 20.6219 68.0865 20.6389 68.0444 20.6389H65.939C65.897 20.6389 65.8566 20.6219 65.827 20.5918C65.7972 20.5617 65.7805 20.5209 65.7805 20.4782V10.9563C65.7805 10.6263 65.7718 10.2011 65.7543 9.68074C65.74 9.23786 65.7193 8.83151 65.6919 8.47277C65.6901 8.45074 65.6928 8.42858 65.6999 8.40767C65.7071 8.38677 65.7184 8.36759 65.7331 8.35134C65.748 8.3351 65.7659 8.32215 65.786 8.31332C65.806 8.30449 65.8276 8.29997 65.8494 8.30005H67.8237C67.8627 8.29984 67.9005 8.31433 67.9296 8.34072C67.9586 8.36712 67.977 8.40353 67.9811 8.44287C68.0074 8.72078 68.0281 9.03413 68.0434 9.38068C68.0598 9.78814 68.0696 10.1225 68.0696 10.3772H68.1462C68.4789 9.66106 69.0016 9.0527 69.6559 8.62003C70.3147 8.17728 71.0898 7.94578 71.8805 7.9557C72.1543 7.95168 72.4279 7.97579 72.697 8.02767C72.7337 8.03492 72.7667 8.05495 72.7903 8.0843C72.8138 8.11363 72.8265 8.1504 72.8261 8.18822ZM49.6506 18.9404C49.6807 18.9685 49.6987 19.0073 49.701 19.0486C49.7032 19.0899 49.6894 19.1305 49.6627 19.1618C49.1535 19.7225 48.5313 20.1658 47.8382 20.4617C47.0076 20.8125 46.1144 20.9855 45.2146 20.9699C44.3232 20.9793 43.4379 20.8205 42.604 20.5015C41.835 20.2064 41.1314 19.7593 40.5347 19.1862C39.9422 18.6104 39.473 17.9172 39.1561 17.15C38.8117 16.2992 38.641 15.3866 38.6544 14.4672C38.6428 13.5575 38.8088 12.6544 39.1431 11.8099C39.4527 11.0364 39.9168 10.336 40.5062 9.75271C41.1001 9.17186 41.8046 8.71977 42.5768 8.42406C43.402 8.10672 44.2783 7.94789 45.161 7.9557C46.0393 7.96018 46.9083 8.1369 47.7202 8.47609C48.4658 8.76638 49.1266 9.2433 49.6408 9.86232C49.6658 9.89535 49.6771 9.93689 49.6724 9.97819C49.6677 10.0195 49.6473 10.0573 49.6157 10.0838L48.1202 11.3117C48.1041 11.3254 48.0853 11.3355 48.0651 11.3416C48.0449 11.3477 48.0238 11.3496 48.0028 11.3473C47.9819 11.345 47.9616 11.3383 47.9433 11.3278C47.925 11.3172 47.9089 11.3031 47.8962 11.2862C47.6105 10.9188 47.2465 10.6217 46.8314 10.4171C46.323 10.1494 45.758 10.0107 45.1851 10.0129C44.6037 10.0014 44.0276 10.126 43.5016 10.3772C43.0234 10.612 42.5987 10.9449 42.2543 11.3548C41.9055 11.7729 41.6391 12.2547 41.4694 12.7743C41.1093 13.8735 41.1093 15.061 41.4694 16.1601C41.6391 16.6798 41.9055 17.1615 42.2543 17.5796C42.601 17.9918 43.0303 18.3246 43.5136 18.5562C44.0456 18.797 44.6219 18.9216 45.2047 18.9216C45.7876 18.9216 46.3638 18.797 46.8959 18.5562C47.3332 18.3512 47.7235 18.0558 48.0415 17.6892C48.0696 17.6591 48.1081 17.6413 48.1489 17.6394C48.1897 17.6376 48.2296 17.6518 48.2602 17.6792L49.6506 18.9404ZM61.7118 9.77375C61.1065 9.19227 60.3945 8.73671 59.6161 8.43291C57.9425 7.79068 56.0949 7.79068 54.4213 8.43291C53.6459 8.73477 52.9378 9.19067 52.3388 9.77375C51.7499 10.3556 51.282 11.0509 50.9625 11.8188C50.6209 12.6475 50.4505 13.5382 50.4618 14.4363C50.4512 15.3385 50.6215 16.2334 50.9625 17.0669C51.2813 17.843 51.7491 18.5471 52.3388 19.1385C52.9347 19.7288 53.6433 20.1896 54.4213 20.4927C56.0949 21.1349 57.9425 21.1349 59.6161 20.4927C60.3969 20.1876 61.1094 19.7271 61.7118 19.1385C62.3058 18.5507 62.7768 17.8477 63.0967 17.0714C63.4377 16.2378 63.6081 15.3428 63.5974 14.4406C63.6088 13.5427 63.4383 12.652 63.0967 11.8232C62.7744 11.0528 62.3006 10.3571 61.704 9.77817L61.7118 9.77375ZM60.8011 16.1425C60.6289 16.6638 60.3624 17.1481 60.0151 17.5707C59.6653 17.99 59.2291 18.3267 58.7372 18.5573C58.1873 18.7976 57.5946 18.9216 56.9958 18.9216C56.3968 18.9216 55.8042 18.7976 55.2543 18.5573C54.7628 18.3266 54.327 17.9899 53.9775 17.5707C53.6302 17.1481 53.3637 16.6638 53.1914 16.1425C52.8301 15.0466 52.8301 13.8613 53.1914 12.7655C53.3622 12.2474 53.6289 11.7671 53.9775 11.3504C54.3299 10.9377 54.7652 10.6059 55.2543 10.3772C55.8042 10.1369 56.3968 10.0129 56.9958 10.0129C57.5946 10.0129 58.1873 10.1369 58.7372 10.3772C59.2266 10.6059 59.6623 10.9377 60.0151 11.3504C60.3637 11.7671 60.6304 12.2474 60.8011 12.7655C61.1625 13.8613 61.1625 15.0466 60.8011 16.1425Z" fill="#74C947"/>
</g>
<defs>
<clipPath id="clip0_1009_2854">
<rect width="24" height="33" fill="white" transform="translate(0 1)"/>
</clipPath>
</defs>
</svg>
