<svg width="46" height="46" viewBox="0 0 46 46" fill="none" xmlns="http://www.w3.org/2000/svg">
<path d="M34.5 0H11.5C5.14873 0 0 5.14873 0 11.5V34.5C0 40.8513 5.14873 46 11.5 46H34.5C40.8513 46 46 40.8513 46 34.5V11.5C46 5.14873 40.8513 0 34.5 0Z" fill="#74C947"/>
<path d="M35.5744 21.4696C32.7291 22.175 28.8584 22.7075 23.4997 22.7075C18.0144 22.7075 14.2708 22.175 11.4255 21.4696C9.34926 20.9544 9.36175 10.7042 21.7265 9.79467C22.4423 8.79639 22.0469 6.83754 21.6005 6.28238C21.5043 6.16315 21.6157 5.98013 21.7634 6.00176C22.0138 6.03663 22.2586 6.10487 22.4917 6.20474C24.3925 7.02943 25.331 9.29498 25.5374 9.81797C37.6333 10.8556 37.6354 20.9594 35.5744 21.4696ZM34.2601 23.5255C32.6308 23.8644 28.5304 24.5155 23.4904 24.5155C18.4505 24.5155 14.3523 23.8632 12.7262 23.5249C12.6288 23.5045 12.5282 23.5055 12.4311 23.5279C12.3341 23.5503 12.2429 23.5936 12.1635 23.655C12.0842 23.7163 12.0186 23.7942 11.9711 23.8835C11.9237 23.9728 11.8954 24.0714 11.8882 24.1727C11.6911 26.9635 11.8339 35.7417 21.7623 37.4831C22.2935 37.9451 23.1744 39.005 23.4953 39C23.8163 39.005 24.6972 37.9462 25.2278 37.4831C35.0823 35.5515 35.2806 26.9457 35.0981 24.1788C35.0915 24.0771 35.0637 23.978 35.0164 23.8882C34.9692 23.7984 34.9037 23.7199 34.8243 23.6581C34.7449 23.5963 34.6535 23.5526 34.5562 23.5299C34.4588 23.5072 34.3579 23.5061 34.2601 23.5266V23.5255Z" fill="white"/>
</svg>
