<svg width="24" height="24" viewBox="0 0 24 24" fill="none" xmlns="http://www.w3.org/2000/svg">
<path d="M15.67 3.68765C15.5433 3.68796 15.4178 3.66421 15.3 3.61765C13.1783 2.78783 10.8217 2.78783 8.7 3.61765C8.57463 3.68172 8.43714 3.71859 8.29654 3.72586C8.15593 3.73312 8.01537 3.71061 7.88407 3.6598C7.75276 3.60899 7.63367 3.53103 7.53457 3.43102C7.43548 3.331 7.35862 3.21119 7.30903 3.07942C7.25944 2.94764 7.23823 2.80689 7.2468 2.66635C7.25536 2.52582 7.2935 2.38868 7.35873 2.26391C7.42396 2.13914 7.5148 2.02954 7.62531 1.9423C7.73581 1.85506 7.8635 1.79214 8 1.75765C10.5986 0.747449 13.4814 0.747449 16.08 1.75765C16.2022 1.80614 16.3136 1.87826 16.408 1.96986C16.5023 2.06147 16.5776 2.17078 16.6296 2.29152C16.6816 2.41227 16.7093 2.54209 16.7111 2.67355C16.7129 2.80501 16.6887 2.93554 16.64 3.05765C16.5635 3.25021 16.4291 3.41426 16.2553 3.52712C16.0816 3.63998 15.877 3.69607 15.67 3.68765ZM22.98 12.6877C22.98 12.4577 22.98 12.2377 22.98 12.0077C22.9813 9.45369 22.0939 6.97885 20.47 5.00765C20.3861 4.90639 20.283 4.82269 20.1666 4.76134C20.0503 4.69999 19.9229 4.66219 19.792 4.65011C19.661 4.63804 19.5289 4.65192 19.4033 4.69097C19.2777 4.73001 19.161 4.79345 19.06 4.87765C18.8685 5.0566 18.755 5.30356 18.7438 5.56539C18.7326 5.82721 18.8246 6.08298 19 6.27765C20.3078 7.89583 21.0145 9.91713 21 11.9977C21 12.1877 21 12.3777 21 12.5577C20.9919 12.689 21.0098 12.8207 21.0527 12.9452C21.0955 13.0696 21.1626 13.1843 21.2499 13.2828C21.3372 13.3813 21.4432 13.4616 21.5616 13.519C21.68 13.5765 21.8086 13.61 21.94 13.6177H22C22.2551 13.6181 22.5008 13.521 22.6867 13.3463C22.8726 13.1715 22.9847 12.9323 23 12.6777L22.98 12.6877ZM14.75 22.6877C17.4485 21.9919 19.7823 20.2978 21.28 17.9477C21.4232 17.7235 21.4715 17.4517 21.4143 17.192C21.3571 16.9322 21.1991 16.7059 20.975 16.5627C20.7509 16.4194 20.4791 16.3711 20.2193 16.4283C19.9596 16.4855 19.7332 16.6435 19.59 16.8677C18.3675 18.7944 16.4588 20.1848 14.25 20.7577C13.9848 20.7908 13.7436 20.928 13.5795 21.1389C13.4154 21.3499 13.3418 21.6174 13.375 21.8827C13.4082 22.1479 13.5453 22.3891 13.7563 22.5531C13.9673 22.7172 14.2348 22.7908 14.5 22.7577C14.5877 22.7318 14.6717 22.6948 14.75 22.6477V22.6877ZM10.4 21.9577C10.4671 21.7017 10.4301 21.4297 10.297 21.201C10.1639 20.9723 9.94566 20.8057 9.69 20.7377C7.50661 20.1562 5.62181 18.7747 4.41 16.8677C4.33909 16.7567 4.24701 16.6608 4.13903 16.5854C4.03105 16.51 3.90928 16.4566 3.78067 16.4283C3.65206 16.4 3.51913 16.3973 3.38947 16.4203C3.25982 16.4434 3.13597 16.4917 3.025 16.5627C2.91403 16.6336 2.81812 16.7256 2.74274 16.8336C2.66735 16.9416 2.61398 17.0634 2.58566 17.192C2.55733 17.3206 2.55462 17.4535 2.57767 17.5832C2.60072 17.7128 2.64909 17.8367 2.72 17.9477C4.20016 20.2802 6.50796 21.9664 9.18 22.6677C9.26606 22.6822 9.35394 22.6822 9.44 22.6677C9.66028 22.6658 9.8738 22.5913 10.0474 22.4557C10.221 22.3201 10.3449 22.1309 10.4 21.9177V21.9577ZM2.08 13.6577C2.21332 13.6477 2.34329 13.611 2.46221 13.55C2.58114 13.4889 2.6866 13.4046 2.77237 13.302C2.85815 13.1994 2.92248 13.0807 2.96158 12.9529C3.00068 12.825 3.01374 12.6906 3 12.5577C3 12.3777 3 12.1877 3 11.9977C3.00007 9.90632 3.72845 7.8803 5.06 6.26765C5.22579 6.06291 5.30407 5.80101 5.27786 5.53887C5.25164 5.27672 5.12304 5.03552 4.92 4.86765C4.7165 4.70071 4.45538 4.62073 4.19329 4.64507C3.93121 4.6694 3.68928 4.79609 3.52 4.99765C1.89248 6.96748 1.00149 9.44245 1 11.9977C1 12.2277 1 12.4477 1 12.6777C1.01531 12.9323 1.12739 13.1715 1.31329 13.3463C1.49919 13.521 1.74486 13.6181 2 13.6177L2.08 13.6577ZM12.71 16.9977L17 12.7077C17.0937 12.6147 17.1681 12.5041 17.2189 12.3822C17.2697 12.2604 17.2958 12.1297 17.2958 11.9977C17.2958 11.8656 17.2697 11.7349 17.2189 11.6131C17.1681 11.4912 17.0937 11.3806 17 11.2877L12.71 7.04765C12.617 6.95392 12.5064 6.87953 12.3846 6.82876C12.2627 6.77799 12.132 6.75185 12 6.75185C11.868 6.75185 11.7373 6.77799 11.6154 6.82876C11.4936 6.87953 11.383 6.95392 11.29 7.04765L7.05 11.2877C6.95627 11.3806 6.88188 11.4912 6.83111 11.6131C6.78034 11.7349 6.7542 11.8656 6.7542 11.9977C6.7542 12.1297 6.78034 12.2604 6.83111 12.3822C6.88188 12.5041 6.95627 12.6147 7.05 12.7077L11.29 16.9977C11.383 17.0914 11.4936 17.1658 11.6154 17.2165C11.7373 17.2673 11.868 17.2935 12 17.2935C12.132 17.2935 12.2627 17.2673 12.3846 17.2165C12.5064 17.1658 12.617 17.0914 12.71 16.9977ZM12 9.16765L14.83 11.9977L12 14.8277L9.17 11.9977L12 9.16765Z" fill="#191919"/>
</svg>
