<svg width="24" height="24" viewBox="0 0 24 24" fill="none" xmlns="http://www.w3.org/2000/svg">
<path fill-rule="evenodd" clip-rule="evenodd" d="M20.782 18.223C20.567 18.544 20.212 18.737 19.83 18.737H19.827L4.11597 18.7C3.79097 18.699 3.48097 18.558 3.26497 18.314C3.06197 18.083 2.96997 17.793 3.00897 17.49L3.02897 17.348C3.39897 14.863 5.47597 12.804 7.96697 12.452C8.25697 12.411 8.54597 12.392 8.82998 12.392C10.33 12.392 11.739 12.947 12.82 13.96C12.271 14.399 11.803 14.914 11.427 15.497C11.127 15.961 11.26 16.58 11.723 16.88C12.186 17.18 12.805 17.047 13.106 16.583C13.43 16.081 13.855 15.65 14.369 15.301C15.826 14.307 17.858 14.322 19.307 15.334C20.014 15.828 20.559 16.497 20.885 17.269C21.071 17.711 20.875 18.083 20.782 18.223ZM8.95997 5C10.155 5 11.128 5.973 11.128 7.168C11.128 8.364 10.155 9.336 8.95997 9.336C7.76397 9.336 6.79197 8.364 6.79197 7.168C6.79197 5.973 7.76397 5 8.95997 5ZM16.956 9.224C17.569 9.224 18.068 9.723 18.068 10.336C18.068 10.95 17.569 11.449 16.956 11.449C16.343 11.449 15.844 10.95 15.844 10.336C15.844 9.723 16.343 9.224 16.956 9.224ZM22.728 16.494C22.257 15.373 21.469 14.406 20.454 13.696C19.926 13.327 19.349 13.058 18.754 12.868C19.546 12.303 20.068 11.381 20.068 10.336C20.068 8.62 18.672 7.224 16.956 7.224C15.24 7.224 13.844 8.62 13.844 10.336C13.844 11.346 14.335 12.236 15.082 12.804C14.928 12.848 14.772 12.886 14.622 12.942C13.653 11.888 12.419 11.144 11.07 10.742C12.296 10.015 13.128 8.693 13.128 7.168C13.128 4.87 11.258 3 8.95997 3C6.66197 3 4.79197 4.87 4.79197 7.168C4.79197 8.651 5.57597 9.947 6.74597 10.686C3.79497 11.49 1.50897 13.98 1.05197 17.05L1.02297 17.25C0.915975 18.11 1.18597 18.98 1.76497 19.636C2.35897 20.31 3.21497 20.698 4.11197 20.7L19.822 20.737H19.831C20.883 20.737 21.86 20.212 22.446 19.331C23.012 18.482 23.118 17.42 22.728 16.494Z" fill="#191919"/>
</svg>
