<svg width="30" height="30" viewBox="0 0 30 30" fill="none" xmlns="http://www.w3.org/2000/svg">
<path fill-rule="evenodd" clip-rule="evenodd" d="M25.9775 22.7787C25.7087 23.18 25.265 23.4212 24.7875 23.4212H24.7837L5.14497 23.375C4.73872 23.3738 4.35122 23.1975 4.08122 22.8925C3.82747 22.6038 3.71247 22.2413 3.76122 21.8625L3.78622 21.685C4.24872 18.5787 6.84497 16.005 9.95872 15.565C10.3212 15.5138 10.6825 15.49 11.0375 15.49C12.9125 15.49 14.6737 16.1838 16.025 17.45C15.3387 17.9988 14.7537 18.6425 14.2837 19.3713C13.9087 19.9513 14.075 20.725 14.6537 21.1C15.2325 21.475 16.0062 21.3088 16.3825 20.7288C16.7875 20.1012 17.3187 19.5625 17.9612 19.1263C19.7825 17.8837 22.3225 17.9025 24.1337 19.1675C25.0175 19.785 25.6987 20.6213 26.1062 21.5863C26.3387 22.1388 26.0937 22.6038 25.9775 22.7787ZM11.2 6.25C12.6937 6.25 13.91 7.46625 13.91 8.96C13.91 10.455 12.6937 11.67 11.2 11.67C9.70497 11.67 8.48997 10.455 8.48997 8.96C8.48997 7.46625 9.70497 6.25 11.2 6.25ZM21.195 11.53C21.9612 11.53 22.585 12.1538 22.585 12.92C22.585 13.6875 21.9612 14.3112 21.195 14.3112C20.4287 14.3112 19.805 13.6875 19.805 12.92C19.805 12.1538 20.4287 11.53 21.195 11.53ZM28.41 20.6175C27.8212 19.2163 26.8362 18.0075 25.5675 17.12C24.9075 16.6587 24.1862 16.3225 23.4425 16.085C24.4325 15.3788 25.085 14.2262 25.085 12.92C25.085 10.775 23.34 9.03 21.195 9.03C19.05 9.03 17.305 10.775 17.305 12.92C17.305 14.1825 17.9187 15.295 18.8525 16.005C18.66 16.06 18.465 16.1075 18.2775 16.1775C17.0662 14.86 15.5237 13.93 13.8375 13.4275C15.37 12.5188 16.41 10.8663 16.41 8.96C16.41 6.0875 14.0725 3.75 11.2 3.75C8.32747 3.75 5.98997 6.0875 5.98997 8.96C5.98997 10.8138 6.96997 12.4338 8.43247 13.3575C4.74372 14.3625 1.88622 17.475 1.31497 21.3125L1.27872 21.5625C1.14497 22.6375 1.48247 23.725 2.20622 24.545C2.94872 25.3875 4.01872 25.8725 5.13997 25.875L24.7775 25.9212H24.7887C26.1037 25.9212 27.325 25.265 28.0575 24.1637C28.765 23.1025 28.8975 21.775 28.41 20.6175Z" fill="white"/>
</svg>
