<svg width="30" height="30" viewBox="0 0 30 30" fill="none" xmlns="http://www.w3.org/2000/svg">
<path d="M18.275 27.5H11.725C6.6375 27.5 2.5 23.3625 2.5 18.275V11.725C2.5 6.6375 6.6375 2.5 11.725 2.5H18.275C23.3625 2.5 27.5 6.6375 27.5 11.725V18.275C27.5 23.3625 23.3625 27.5 18.275 27.5ZM11.725 5C8.0125 5 5 8.0125 5 11.725V18.275C5 21.9875 8.0125 25 11.725 25H18.275C21.9875 25 25 21.9875 25 18.275V11.725C25 8.0125 21.9875 5 18.275 5H11.725ZM16.25 20V10.625C16.25 9.9375 15.6875 9.375 15 9.375C14.3125 9.375 13.75 9.9375 13.75 10.625V20C13.75 20.6875 14.3125 21.25 15 21.25C15.6875 21.25 16.25 20.6875 16.25 20ZM11.25 20V16.875C11.25 16.1875 10.6875 15.625 10 15.625C9.3125 15.625 8.75 16.1875 8.75 16.875V20C8.75 20.6875 9.3125 21.25 10 21.25C10.6875 21.25 11.25 20.6875 11.25 20ZM21.25 20V13.75C21.25 13.0625 20.6875 12.5 20 12.5C19.3125 12.5 18.75 13.0625 18.75 13.75V20C18.75 20.6875 19.3125 21.25 20 21.25C20.6875 21.25 21.25 20.6875 21.25 20Z" fill="white"/>
</svg>
