<svg width="160" height="161" viewBox="0 0 160 161" fill="none" xmlns="http://www.w3.org/2000/svg">
<mask id="mask0_453_8411" style="mask-type:alpha" maskUnits="userSpaceOnUse" x="0" y="0" width="160" height="161">
<rect y="0.229492" width="160" height="160" rx="60" fill="#D9E3E6"/>
</mask>
<g mask="url(#mask0_453_8411)">
<rect y="0.229492" width="160" height="160" rx="60" fill="#6944FF"/>
<path d="M77.9175 53.2295C77.0261 53.2295 76.1458 52.8882 75.4635 52.2165L69.0151 45.764C67.6616 44.4097 67.6616 42.2185 69.0151 40.8641L77.5103 32.3636C78.2366 31.6369 79.216 31.2295 80.2503 31.2295H86.5337C88.4484 31.2295 90 32.782 90 34.698V40.9852C90 42.0203 89.5928 43.0003 88.8666 43.727L80.3824 52.2275C79.6891 52.8992 78.8088 53.2295 77.9175 53.2295ZM80.2503 33.4317C79.7992 33.4317 79.381 33.6079 79.0619 33.9272L70.5777 42.4277C70.0825 42.9232 70.0825 43.727 70.5777 44.2115L77.0261 50.6639C77.5213 51.1594 78.3246 51.1594 78.8088 50.6639L87.304 42.1634C87.6231 41.8441 87.7992 41.4257 87.7992 40.9742V34.698C87.7992 34.0043 87.227 33.4317 86.5337 33.4317H80.2503ZM83.5516 37.6709C82.8803 36.9993 81.7909 36.9993 81.1087 37.6709C80.4264 38.3426 80.4374 39.4327 81.1087 40.1154C81.7799 40.7981 82.8693 40.7871 83.5516 40.1154C84.2338 39.4437 84.2228 38.3536 83.5516 37.6709ZM79.5571 47.9002C79.9862 47.4707 79.9862 46.777 79.5571 46.3476L74.8913 41.6789C74.4622 41.2495 73.7689 41.2495 73.3398 41.6789C72.9106 42.1084 72.9106 42.8021 73.3398 43.2315L78.0055 47.9002C78.2256 48.1204 78.5007 48.2195 78.7868 48.2195C79.0729 48.2195 79.337 48.1204 79.5571 47.9002Z" fill="white"/>
<path d="M53.4693 80.3095H64.8393V82.2295H51.3093V60.9895H64.4793V62.9095H53.4693V70.2295H63.7593V72.1195H53.4693V80.3095ZM77.7932 73.1695C77.7932 71.9495 77.4732 71.0395 76.8332 70.4395C76.1932 69.8395 75.2632 69.5395 74.0432 69.5395C73.2032 69.5395 72.4232 69.6895 71.7032 69.9895C70.9832 70.2895 70.3732 70.6895 69.8732 71.1895L68.7332 69.8395C69.3132 69.2595 70.0732 68.7795 71.0132 68.3995C71.9732 68.0195 73.0532 67.8295 74.2532 67.8295C75.0132 67.8295 75.7232 67.9395 76.3832 68.1595C77.0432 68.3595 77.6232 68.6695 78.1232 69.0895C78.6232 69.5095 79.0132 70.0395 79.2932 70.6795C79.5732 71.3195 79.7132 72.0695 79.7132 72.9295V79.0795C79.7132 79.6195 79.7332 80.1795 79.7732 80.7595C79.8132 81.3395 79.8732 81.8295 79.9532 82.2295H78.1232C78.0632 81.8895 78.0132 81.5195 77.9732 81.1195C77.9332 80.7195 77.9132 80.3295 77.9132 79.9495H77.8532C77.2132 80.8895 76.4832 81.5695 75.6632 81.9895C74.8632 82.3895 73.8932 82.5895 72.7532 82.5895C72.2132 82.5895 71.6532 82.5095 71.0732 82.3495C70.5132 82.2095 69.9932 81.9695 69.5132 81.6295C69.0532 81.2895 68.6632 80.8495 68.3432 80.3095C68.0432 79.7695 67.8932 79.1095 67.8932 78.3295C67.8932 77.2495 68.1632 76.3995 68.7032 75.7795C69.2632 75.1395 70.0032 74.6695 70.9232 74.3695C71.8432 74.0495 72.8932 73.8495 74.0732 73.7695C75.2732 73.6695 76.5132 73.6195 77.7932 73.6195V73.1695ZM77.1932 75.2095C76.3532 75.2095 75.5032 75.2495 74.6432 75.3295C73.8032 75.3895 73.0332 75.5295 72.3332 75.7495C71.6532 75.9495 71.0932 76.2495 70.6532 76.6495C70.2132 77.0495 69.9932 77.5795 69.9932 78.2395C69.9932 78.7395 70.0832 79.1595 70.2632 79.4995C70.4632 79.8395 70.7232 80.1195 71.0432 80.3395C71.3632 80.5395 71.7132 80.6895 72.0932 80.7895C72.4932 80.8695 72.8932 80.9095 73.2932 80.9095C74.0132 80.9095 74.6532 80.7895 75.2132 80.5495C75.7732 80.2895 76.2432 79.9495 76.6232 79.5295C77.0032 79.0895 77.2932 78.5895 77.4932 78.0295C77.6932 77.4695 77.7932 76.8795 77.7932 76.2595V75.2095H77.1932ZM84.9686 71.2795C84.9686 70.8995 84.9586 70.4095 84.9386 69.8095C84.9186 69.2095 84.8886 68.6695 84.8486 68.1895H86.7986C86.8386 68.5695 86.8686 68.9895 86.8886 69.4495C86.9086 69.9095 86.9186 70.2895 86.9186 70.5895H86.9786C87.3786 69.7695 87.9786 69.1095 88.7786 68.6095C89.5786 68.0895 90.4786 67.8295 91.4786 67.8295C91.7386 67.8295 91.9686 67.8395 92.1686 67.8595C92.3886 67.8795 92.6086 67.9195 92.8286 67.9795L92.5586 69.8995C92.4386 69.8595 92.2386 69.8195 91.9586 69.7795C91.6786 69.7395 91.3986 69.7195 91.1186 69.7195C90.5786 69.7195 90.0586 69.8195 89.5586 70.0195C89.0586 70.2195 88.6186 70.5395 88.2386 70.9795C87.8786 71.3995 87.5786 71.9495 87.3386 72.6295C87.1186 73.2895 87.0086 74.0895 87.0086 75.0295V82.2295H84.9686V71.2795ZM97.6091 68.1895C97.6491 68.5695 97.6791 68.9895 97.6991 69.4495C97.7191 69.9095 97.7291 70.2895 97.7291 70.5895H97.7891C98.1891 69.7695 98.8391 69.1095 99.7391 68.6095C100.639 68.0895 101.589 67.8295 102.589 67.8295C104.369 67.8295 105.699 68.3595 106.579 69.4195C107.479 70.4795 107.929 71.8795 107.929 73.6195V82.2295H105.889V74.4595C105.889 73.7195 105.829 73.0495 105.709 72.4495C105.589 71.8495 105.379 71.3395 105.079 70.9195C104.799 70.4795 104.409 70.1395 103.909 69.8995C103.429 69.6595 102.819 69.5395 102.079 69.5395C101.539 69.5395 101.009 69.6495 100.489 69.8695C99.9891 70.0895 99.5391 70.4295 99.1391 70.8895C98.7391 71.3295 98.4191 71.8995 98.1791 72.5995C97.9391 73.2795 97.8191 74.0895 97.8191 75.0295V82.2295H95.7791V71.2795C95.7791 70.8995 95.7691 70.4095 95.7491 69.8095C95.7291 69.2095 95.6991 68.6695 95.6591 68.1895H97.6091Z" fill="white"/>
<circle cx="58" cy="125.229" r="18" fill="#53A318"/>
<path d="M57.8582 127.434C58.7845 127.434 59.4016 126.834 59.4016 125.821V123.229H58.3885V125.78C58.3885 126.252 58.2192 126.485 57.8638 126.485C57.521 126.485 57.3741 126.246 57.3741 125.78V123.229H56.3555V125.821C56.3569 126.856 56.9208 127.434 57.8582 127.434Z" fill="white"/>
<path d="M62.1174 123.456C61.8375 123.259 61.5059 123.229 61.0694 123.229H59.6953V127.37H60.7084V126.036H60.9994C61.4304 126.036 61.7564 126.007 62.0194 125.85C62.4322 125.6 62.6771 125.158 62.6771 124.622C62.6771 124.103 62.4854 123.712 62.1174 123.456ZM60.907 125.139H60.7209V124.156H60.9882C61.4374 124.156 61.6528 124.296 61.6528 124.639C61.6514 125.011 61.408 125.139 60.907 125.139Z" fill="white"/>
<path d="M68.2787 125.064L69.822 127.37H70.7119V123.229H69.7003V125.53L68.1793 123.229H67.2656V127.37H68.2787V125.064Z" fill="white"/>
<path d="M55.4529 123.765C55.0514 123.369 54.5281 123.153 53.974 123.153C53.3863 123.153 52.8728 123.358 52.4656 123.759C52.0584 124.161 51.8359 124.685 51.8359 125.256C51.8359 125.868 52.0346 126.38 52.4236 126.794C52.8308 127.225 53.3555 127.446 53.967 127.446C54.5434 127.446 55.0905 127.219 55.4921 126.8C55.8825 126.398 56.0924 125.868 56.0924 125.275C56.0938 124.708 55.8727 124.178 55.4529 123.765ZM53.9684 126.421C53.3975 126.421 52.8798 125.92 52.8798 125.268C52.8798 124.662 53.3625 124.179 53.981 124.179C54.563 124.179 55.0472 124.662 55.0472 125.268C55.0458 125.942 54.563 126.421 53.9684 126.421Z" fill="white"/>
<path d="M66.4256 123.765C66.024 123.369 65.4993 123.153 64.9466 123.153C64.3575 123.153 63.8454 123.358 63.4382 123.759C63.0311 124.161 62.8086 124.685 62.8086 125.256C62.8086 125.868 63.0073 126.38 63.3963 126.794C63.8048 127.225 64.3282 127.446 64.9396 127.446C65.5161 127.446 66.0632 127.219 66.4648 126.8C66.8552 126.398 67.0651 125.868 67.0651 125.275C67.0664 124.708 66.8454 124.178 66.4256 123.765ZM64.941 126.421C64.3701 126.421 63.8524 125.92 63.8524 125.268C63.8524 124.662 64.3366 124.179 64.9536 124.179C65.5357 124.179 66.0198 124.662 66.0198 125.268C66.0184 125.942 65.5343 126.421 64.941 126.421Z" fill="white"/>
<path d="M44.7855 126.793C45.1927 127.224 45.7118 127.451 46.3233 127.451C47.0285 127.451 47.6917 127.101 48.0877 126.525C48.327 126.175 48.4431 125.779 48.4431 125.313C48.4431 125.226 48.4375 125.132 48.4319 125.039H46.0728V125.866H47.2551C47.0509 126.227 46.708 126.425 46.3233 126.425C45.7524 126.425 45.2403 125.919 45.2403 125.26C45.2403 124.665 45.7174 124.171 46.3233 124.171C46.6493 124.171 46.9165 124.305 47.174 124.573H48.327C47.9953 123.687 47.2202 123.146 46.3358 123.146C45.7482 123.146 45.2361 123.355 44.8275 123.757C44.4203 124.159 44.1992 124.683 44.1992 125.254C44.1978 125.867 44.3951 126.379 44.7855 126.793Z" fill="white"/>
<path d="M50.7435 125.948C51.3312 125.784 51.681 125.285 51.681 124.615C51.681 124.103 51.4893 123.712 51.1213 123.456C50.8414 123.259 50.5098 123.229 50.0733 123.229H48.6992V127.37H49.7123V126.036L50.5042 127.37H51.7565L50.7435 125.948ZM49.911 125.139H49.7137V124.156H49.9935C50.4413 124.156 50.6567 124.296 50.6567 124.639C50.6567 125.011 50.4119 125.139 49.911 125.139Z" fill="white"/>
<path d="M71.3223 123.754C71.4091 123.754 71.4833 123.723 71.5434 123.662C71.605 123.6 71.6344 123.526 71.6344 123.441C71.6344 123.354 71.6036 123.281 71.5434 123.221C71.4833 123.161 71.4091 123.13 71.3223 123.13C71.237 123.13 71.1628 123.161 71.1027 123.221C71.0411 123.282 71.0117 123.355 71.0117 123.441C71.0117 123.527 71.0425 123.601 71.1027 123.662C71.1628 123.723 71.2356 123.754 71.3223 123.754ZM71.1335 123.25C71.1866 123.197 71.2496 123.17 71.3237 123.17C71.3979 123.17 71.4623 123.197 71.514 123.25C71.5658 123.302 71.5924 123.366 71.5924 123.441C71.5924 123.515 71.5658 123.579 71.514 123.632C71.4623 123.685 71.3993 123.712 71.3237 123.712C71.2496 123.712 71.1852 123.685 71.1335 123.632C71.0817 123.579 71.0551 123.516 71.0551 123.441C71.0551 123.366 71.0803 123.303 71.1335 123.25Z" fill="white"/>
<path d="M71.4573 123.606C71.4559 123.603 71.4545 123.598 71.4545 123.588C71.4545 123.58 71.4531 123.57 71.4531 123.563V123.538C71.4531 123.521 71.4475 123.503 71.4349 123.484C71.4223 123.466 71.4027 123.455 71.3761 123.451C71.3971 123.448 71.4139 123.442 71.4251 123.434C71.4475 123.42 71.4587 123.396 71.4587 123.367C71.4587 123.324 71.4405 123.294 71.4055 123.28C71.3859 123.272 71.3551 123.268 71.3117 123.268H71.1914V123.61H71.2516V123.476H71.2991C71.3313 123.476 71.3537 123.48 71.3663 123.487C71.3887 123.5 71.3985 123.526 71.3985 123.566V123.592L71.3999 123.603C71.3999 123.605 71.3999 123.606 71.3999 123.608C71.3999 123.609 71.3999 123.61 71.4013 123.61H71.4573V123.606ZM71.3663 123.426C71.3537 123.431 71.3341 123.433 71.3089 123.433H71.2544V123.308H71.3061C71.3397 123.308 71.3635 123.312 71.3789 123.321C71.3943 123.329 71.4013 123.346 71.4013 123.371C71.4013 123.399 71.3887 123.417 71.3663 123.426Z" fill="white"/>
<circle cx="12" cy="125.229" r="18" fill="black"/>
<path d="M18.0422 129.251C17.8214 129.754 17.56 130.217 17.2571 130.643C16.8443 131.224 16.5063 131.625 16.2458 131.849C15.842 132.215 15.4093 132.402 14.946 132.413C14.6134 132.413 14.2123 132.32 13.7454 132.13C13.277 131.942 12.8465 131.849 12.4529 131.849C12.04 131.849 11.5973 131.942 11.1237 132.13C10.6494 132.32 10.2673 132.418 9.97519 132.428C9.53091 132.447 9.08808 132.254 8.64605 131.849C8.36391 131.606 8.01104 131.19 7.58829 130.601C7.13472 129.971 6.76184 129.241 6.4697 128.41C6.15684 127.511 6 126.641 6 125.798C6 124.833 6.21146 124.001 6.63501 123.303C6.96789 122.743 7.41072 122.301 7.96497 121.977C8.51921 121.652 9.11809 121.487 9.76301 121.476C10.1159 121.476 10.5787 121.584 11.1537 121.796C11.7272 122.008 12.0954 122.115 12.2568 122.115C12.3775 122.115 12.7866 121.99 13.48 121.739C14.1357 121.506 14.6891 121.41 15.1425 121.448C16.3711 121.545 17.2941 122.023 17.9079 122.883C16.8092 123.54 16.2656 124.459 16.2764 125.639C16.2864 126.558 16.6244 127.322 17.2887 127.93C17.5897 128.211 17.9259 128.429 18.3 128.584C18.2189 128.816 18.1332 129.038 18.0422 129.251V129.251ZM15.2246 118.317C15.2246 119.038 14.9577 119.71 14.4259 120.332C13.7842 121.072 13.0079 121.5 12.1661 121.432C12.1549 121.342 12.1492 121.251 12.1492 121.159C12.1492 120.468 12.4544 119.728 12.9964 119.123C13.267 118.817 13.6111 118.562 14.0284 118.359C14.4449 118.159 14.8388 118.048 15.2092 118.029C15.2201 118.126 15.2246 118.222 15.2246 118.317V118.317Z" fill="white"/>
<circle cx="104" cy="125.229" r="18" fill="#444444"/>
<path d="M92 123.52H93.6451V124.637H93.6558L94.9102 123.52H96.7544L95.2413 124.89L96.9919 126.771H94.9102L93.6558 125.44H93.6451V126.771H92V123.52Z" fill="white"/>
<path d="M99.3682 126.206C100.1 126.206 100.052 125.39 100.052 125.12C100.052 124.851 100.06 124.103 99.3682 124.103C98.6765 124.103 98.6847 124.851 98.6847 125.12C98.6847 125.39 98.636 126.206 99.3682 126.206ZM99.3682 123.429C101.236 123.429 101.744 123.82 101.744 125.154C101.744 126.488 101.236 126.88 99.3682 126.88C97.5001 126.88 96.9922 126.488 96.9922 125.154C96.9922 123.82 97.5001 123.429 99.3682 123.429Z" fill="white"/>
<path d="M105.292 125.549V126.792H106.98V123.542H105.292V124.659H104.08V123.542H102.391V126.792H104.08V125.549H105.292Z" fill="white"/>
<path d="M107.781 123.542H109.509V126.018C109.509 126.018 110.889 126.022 111.072 126.022C111.255 126.022 111.364 125.858 111.364 125.858V126.792H107.781V123.542V123.542Z" fill="white"/>
<path d="M115.389 124.618C115.032 124.332 114.725 124.236 114.396 124.23C114.074 124.225 113.78 124.337 113.78 124.533C113.78 124.687 114 124.751 114.769 124.912C115.401 125.044 115.822 125.367 115.822 125.968C115.822 126.646 114.693 127.029 113.684 127.029C112.975 127.029 112.431 126.902 111.945 126.683V125.773C112.246 126.087 112.919 126.254 113.434 126.254C113.721 126.254 113.861 126.211 113.861 125.984C113.861 125.843 113.683 125.715 113.142 125.616C112.119 125.428 111.773 125.135 111.773 124.635C111.773 123.915 112.668 123.487 113.77 123.487C114.364 123.487 114.91 123.506 115.389 123.729V124.618Z" fill="white"/>
<path d="M110.401 124.868L110.52 124.659C110.163 124.483 110.058 124.035 110.239 123.78C110.434 123.505 110.974 123.387 111.266 123.812C111.514 124.176 111.276 124.483 111.169 124.571C111.061 124.659 110.401 124.868 110.401 124.868Z" fill="white"/>
<circle cx="150" cy="125.229" r="18" fill="white"/>
<path d="M142.051 129.727C141.443 129.701 140.946 129.522 140.557 129.191C140.483 129.127 140.306 128.938 140.247 128.858C140.089 128.645 139.982 128.438 139.91 128.208C139.69 127.501 139.804 126.573 140.234 125.555C140.603 124.683 141.172 123.819 142.165 122.621C142.311 122.445 142.746 121.93 142.749 121.93C142.75 121.93 142.727 121.974 142.697 122.028C142.439 122.491 142.218 123.038 142.097 123.511C141.904 124.27 141.927 124.921 142.166 125.426C142.33 125.774 142.612 126.075 142.929 126.242C143.483 126.534 144.295 126.558 145.287 126.313C145.355 126.296 148.738 125.332 152.805 124.171C156.872 123.01 160.2 122.061 160.201 122.062C160.202 122.063 150.752 126.401 145.847 128.652C145.07 129.008 144.862 129.098 144.497 129.236C143.563 129.587 142.727 129.755 142.051 129.727Z" fill="black"/>
</g>
</svg>
