<svg width="30" height="30" viewBox="0 0 30 30" fill="none" xmlns="http://www.w3.org/2000/svg">
<path d="M26.25 21.25H22.9C23.45 20.0875 23.75 18.8125 23.75 17.5C23.75 12.675 19.825 8.75 15 8.75C10.175 8.75 6.25 12.675 6.25 17.5C6.25 18.8125 6.55 20.0875 7.1 21.25H3.75C3.0625 21.25 2.5 21.8125 2.5 22.5C2.5 23.1875 3.0625 23.75 3.75 23.75H20.5625C20.575 23.75 20.575 23.75 20.5875 23.75H20.6H26.25C26.9375 23.75 27.5 23.1875 27.5 22.5C27.5 21.8125 26.9375 21.25 26.25 21.25ZM15 11.25C18.45 11.25 21.25 14.05 21.25 17.5C21.25 18.8625 20.7875 20.175 19.9625 21.25H10.0125C9.9625 21.1875 9.9125 21.1375 9.875 21.075C9.1375 20.025 8.75 18.7875 8.75 17.5C8.75 14.05 11.55 11.25 15 11.25ZM23.75 26.25C23.75 26.9375 23.1875 27.5 22.5 27.5H7.5C6.8125 27.5 6.25 26.9375 6.25 26.25C6.25 25.5625 6.8125 25 7.5 25H22.5C23.1875 25 23.75 25.5625 23.75 26.25ZM13.75 6.25V3.75C13.75 3.0625 14.3125 2.5 15 2.5C15.6875 2.5 16.25 3.0625 16.25 3.75V6.25C16.25 6.9375 15.6875 7.5 15 7.5C14.3125 7.5 13.75 6.9375 13.75 6.25ZM4.3875 8.6625C3.9 8.175 3.9 7.3875 4.3875 6.9C4.875 6.4125 5.6625 6.4125 6.15 6.9L7.9125 8.6625C8.4 9.15 8.4 9.9375 7.9125 10.425C7.6625 10.675 7.35 10.7875 7.025 10.7875C6.7 10.7875 6.3875 10.6625 6.1375 10.425L4.3875 8.6625ZM3.75 18.75H1.25C0.5625 18.75 0 18.1875 0 17.5C0 16.8125 0.5625 16.25 1.25 16.25H3.75C4.4375 16.25 5 16.8125 5 17.5C5 18.1875 4.4375 18.75 3.75 18.75ZM30 17.5C30 18.1875 29.4375 18.75 28.75 18.75H26.25C25.5625 18.75 25 18.1875 25 17.5C25 16.8125 25.5625 16.25 26.25 16.25H28.75C29.4375 16.25 30 16.8125 30 17.5ZM22.075 10.425C21.5875 9.9375 21.5875 9.15 22.075 8.6625L23.8375 6.9C24.325 6.4125 25.1125 6.4125 25.6 6.9C26.0875 7.3875 26.0875 8.175 25.6 8.6625L23.8375 10.425C23.5875 10.675 23.275 10.7875 22.95 10.7875C22.625 10.7875 22.3125 10.675 22.075 10.425Z" fill="white"/>
</svg>
