<svg version="1.2" baseProfile="tiny" xmlns="http://www.w3.org/2000/svg" xmlns:xlink="http://www.w3.org/1999/xlink" x="0px" y="0px" width="11.746px" height="14.221px" viewBox="0 0 11.746 14.221" xml:space="preserve">
<path fill="#74C947" d="M10.096,6.806H7.22C7.218,6.805,7.216,6.804,7.214,6.803l2.297-2.295c0.118-0.119,0.213-0.252,0.284-0.396
	c0-0.001,0-0.003,0-0.006c0.216-0.443,0.033-0.978-0.409-1.196L5.269,0.884c-0.346-0.171-0.76-0.103-1.031,0.17L2.942,2.149
	c-0.351,0.352-0.351,0.921,0,1.271c0.351,0.35,0.919,0.35,1.269,0l0.842-0.644l1.312,0.646l-2.229,2.23C1.838,5.733,0,7.615,0,9.932
	c0,2.369,1.918,4.287,4.288,4.289c2.368-0.002,4.286-1.92,4.288-4.289c0-0.487-0.086-0.955-0.236-1.393
	c0.01,0.022,0.023,0.041,0.032,0.063h0.765l-0.191,2.909c-0.033,0.495,0.34,0.921,0.836,0.955C9.8,12.468,9.82,12.47,9.839,12.47
	c0.469,0,0.864-0.364,0.896-0.839l0.256-3.866c0.016-0.252-0.07-0.491-0.241-0.674S10.345,6.806,10.096,6.806z M4.288,12.63
	c-1.489-0.004-2.694-1.208-2.696-2.698c0.001-1.23,0.833-2.258,1.961-2.581c0.236-0.066,0.479-0.114,0.735-0.115
	c0.856,0.002,1.609,0.409,2.104,1.031C6.755,8.727,6.982,9.3,6.984,9.932C6.981,11.422,5.776,12.626,4.288,12.63z M10.3,0
	C9.501,0,8.854,0.647,8.854,1.445c0,0.8,0.647,1.447,1.446,1.447s1.445-0.647,1.445-1.447C11.746,0.647,11.099,0,10.3,0z"></path>
</svg>