<svg width="153" height="40" viewBox="0 0 153 40" fill="none" xmlns="http://www.w3.org/2000/svg">
<path fill-rule="evenodd" clip-rule="evenodd" d="M93.2441 11.6203C90.8498 11.6203 88.9185 12.3031 86.9233 13.3275C86.9393 7.37783 87.0111 2.17937 87.1468 0.224609L75.4949 2.5891V3.69025L76.6362 3.8439C78.2642 4.07437 78.8867 5.07309 79.0783 7.36076C79.4454 11.7312 79.3895 35.1371 79.0783 38.8844C82.2147 39.6271 85.6065 40.1905 89.0143 40.1905C98.248 40.1905 103.819 34.1896 103.819 24.6975C103.819 17.1004 99.3014 11.6288 93.252 11.6288L93.2441 11.6203ZM89.1899 38.2613C88.5275 38.2613 87.6815 38.1504 87.2027 38.0565C87.0271 35.4273 86.9074 24.5951 86.9233 15.1286C87.9928 14.753 88.711 14.6591 89.6448 14.6591C93.4675 14.6591 95.6223 19.2942 95.6223 25.1499C95.6223 32.5934 92.9727 38.2528 89.1819 38.2528L89.1899 38.2613ZM31.7047 11.919L29.8851 12.4483C28.305 6.88274 25.7671 3.74147 21.0664 3.74147H15.025C14.7457 7.28394 14.642 13.1909 14.6659 19.3283L18.7361 19.1917C21.4415 19.0978 22.5668 16.9809 23.2212 13.8567H24.7455V26.8657H23.2212C22.5668 23.7415 21.4336 21.6416 18.7361 21.5306L14.6818 21.3941C14.7297 26.0547 14.8415 30.0325 15.041 32.397C15.3203 35.8627 16.2142 37.3821 18.5525 37.7406L20.6275 37.9711V39.5246H0.923096V37.9711L2.55117 37.7406C4.88952 37.3821 5.77538 35.8627 6.06268 32.397C6.5096 26.6949 6.58143 14.8213 6.06268 8.19729C5.78336 4.73165 4.88952 3.21223 2.55117 2.85372L0.923096 2.62324V1.06968H31.5531L31.7127 11.919H31.7047ZM41.5051 11.313C50.212 11.313 54.5296 17.5187 54.5296 25.6706C54.5296 33.8226 49.6454 40.1905 40.9384 40.1905C32.2315 40.1905 27.8979 33.9847 27.8979 25.8328C27.8979 17.6809 32.7821 11.313 41.5051 11.313ZM41.0502 13.0799C37.2034 13.0799 36.1181 18.5515 36.1181 25.7474C36.1181 32.9433 37.818 38.415 41.3854 38.415C45.2321 38.415 46.3174 32.9433 46.3174 25.7474C46.3174 18.5515 44.6175 13.0799 41.0502 13.0799ZM105.941 26.0121C105.925 18.4406 110.482 11.3386 119.453 11.3386C126.747 11.3386 130.243 17.0236 130.275 24.4585H113.994C113.818 31.202 117.074 36.1614 123.291 36.1614C126.029 36.1614 127.513 35.4444 129.165 34.1213L129.931 35.0859C128.128 37.715 124.353 40.2161 119.349 40.2161C111.488 40.199 105.949 34.3603 105.933 26.0121H105.941ZM114.058 22.5293L122.23 22.3416C122.278 18.5515 121.695 13.1226 118.75 13.1226C115.806 13.1226 114.13 18.2528 114.058 22.5293ZM151.208 19.8234L149.875 20.199C148.455 15.3676 146.292 13.3104 143.14 13.3104C141.041 13.3104 139.516 14.9749 139.516 17.3821C139.516 19.7893 141.216 21.0355 146.148 23.0415C150.689 24.8938 152.501 27.0193 152.501 30.8947C152.501 36.6736 148.279 40.2246 141.352 40.2246C138.024 40.2246 134.321 39.4478 132.158 38.5345L131.919 30.5447L133.251 30.1691C135.159 35.7688 137.649 37.8004 140.921 37.8004C143.706 37.8004 145.254 35.7176 145.254 33.4982C145.254 31.2788 144.081 30.0496 139.644 28.368C135.51 26.8145 132.525 24.9194 132.525 20.071C132.525 15.2225 136.492 11.3386 143.052 11.3386C146.1 11.3386 148.989 11.9019 150.929 12.8324L151.208 19.8405V19.8234ZM74.4096 19.61C70.8901 17.126 67.0833 18.2101 66.3012 19.5673C66.0378 24.0402 66.0937 30.8947 66.3889 34.3518C66.5805 36.6395 67.203 37.6297 68.831 37.8687L70.93 38.0223V39.5759H54.769V38.0223L55.9103 37.8687C57.5383 37.6382 58.1608 36.6395 58.3523 34.3518C58.6636 30.6045 58.7195 22.8025 58.3523 18.432C58.1608 16.1444 57.5383 15.1542 55.9103 14.9152L54.769 14.7615V13.6604L66.373 11.2959L66.2373 17.6723C68.9428 11.1166 74.3058 10.2545 77.2507 12.0897L74.4096 19.61Z" fill="white"/>
</svg>
