<svg width="211" height="40" viewBox="0 0 211 40" fill="none" xmlns="http://www.w3.org/2000/svg">
<g clip-path="url(#clip0_817_1465)">
<path d="M44.9156 22.8973L29.4574 33.3067L34.6637 20.8459L37.1336 15.0435C38.1339 13.1684 40.0177 11.9726 42.0732 11.9395C44.0417 11.9395 45.788 12.8937 46.8951 14.605C48.0349 16.3162 48.0987 19.1132 46.9588 20.8463C46.4487 21.6574 45.6925 22.3812 44.9156 22.8973Z" fill="white"/>
<path d="M37.2184 13.0693L29.575 31.2662L29.2344 29.2811L26.935 14.3635C26.8387 13.4529 27.2111 12.6854 27.9345 12.181L29.0313 11.5228C29.0957 11.2922 28.7761 11.2153 28.6266 11.1389L26.4766 11.117C26.3384 8.9669 27.2752 7.0149 29.0846 5.84127C30.4906 4.91939 32.63 4.67862 34.1946 5.42423C36.2284 6.25801 37.6438 8.44088 37.6756 10.6672C37.6655 11.4899 37.5268 12.3343 37.2184 13.0693Z" fill="white"/>
<path d="M22.5385 31.3324L15.0117 13.0911C14.2023 11.1383 14.5429 8.57194 15.9272 6.99218C17.4067 5.33596 19.4933 4.63403 21.644 5.19352C23.4645 5.64303 25.1674 7.39825 25.6151 9.27381C25.828 9.97605 25.7958 10.8204 25.7534 11.5882L22.5385 31.3324Z" fill="white"/>
<path d="M6.45242 22.2388C4.90851 20.8897 4.21704 19.0907 4.44008 17.0065C4.66344 14.9005 6.31417 12.8385 8.28344 12.2025C10.306 11.5661 12.5095 12.0706 13.9788 13.5954C14.5964 14.1879 14.9794 14.8895 15.2984 15.6137L22.5703 33.3392L6.45242 22.2388Z" fill="white"/>
<path d="M4.80042 35.1882C2.78906 34.9587 1.23844 33.8665 0.292846 32.0097C-0.664685 30.1353 -0.415732 27.4751 0.871539 25.8125C2.27442 24.1196 4.30393 23.2682 6.34913 23.6863C7.18274 23.8217 7.88148 24.1827 8.53868 24.5987L24.1874 35.1924L4.80042 35.1882Z" fill="white"/>
<path d="M47.2837 35.1882C49.2961 34.9587 50.8457 33.8665 51.7913 32.0097C52.7491 30.1353 52.5002 27.4751 51.2129 25.8125C49.8097 24.1196 47.7802 23.2682 45.7346 23.6863C44.9017 23.8217 44.2029 24.1827 43.5458 24.5987L27.8971 35.1924L47.2837 35.1882Z" fill="white"/>
<path d="M85.0887 17.5133C84.525 14.7535 82.2827 14.0202 79.7722 13.7872C71.6639 13.0271 70.2272 19.1443 70.2272 21.7265C70.2272 26.1446 71.5059 29.7983 79.4648 29.7983C80.9325 29.7983 84.9857 28.2728 84.9857 25.7951H96.433C95.9713 33.1449 83.729 34.9062 78.3904 34.9062C67.3277 34.9062 57.8559 32.8268 58.3146 21.8268C58.6404 13.9745 65.9921 8.4639 80.6136 8.80825C88.7642 8.9994 96.593 11.5639 96.6267 17.5133H85.0887ZM199.748 17.5133C199.184 14.7535 196.94 14.0202 194.431 13.7872C186.323 13.0271 184.887 19.1443 184.887 21.7265C184.887 26.1446 186.164 29.7983 194.124 29.7983C195.592 29.7983 199.643 28.2728 199.643 25.7951H211.092C210.633 33.1449 198.389 34.9062 193.05 34.9062C181.987 34.9062 172.515 32.8268 172.973 21.8268C173.301 13.9745 180.652 8.4639 195.271 8.80825C203.425 8.9994 211.254 11.5639 211.288 17.5133H199.748ZM98.6704 9.33319H113.531L126.211 27.2772H126.313V9.33319H135.837V34.2485H121.6L108.299 16.3062H108.195V34.2485H98.6704V9.33319ZM138.778 9.33319H156.827C165.504 9.33319 170.606 11.7794 170.606 15.4754C170.606 17.6569 168.47 20.3516 163.708 21.1463V21.2142C169.441 21.5587 171.558 25.2189 171.558 27.4121C171.558 31.8049 166.584 34.2485 156.88 34.2485H138.778V9.33319ZM149.227 19.0144H152.22C156.827 19.0144 159.274 18.6523 159.274 16.7194C159.274 14.6495 157.237 13.9578 153.089 13.9578H149.226V19.0144H149.229H149.227ZM149.227 29.0268H152.22C157.774 29.0268 159.812 28.4396 159.812 26.5077C159.812 24.4359 157.237 23.7461 153.089 23.7461H149.227V29.0269L149.227 29.0268Z" fill="white"/>
</g>
<defs>
<clipPath id="clip0_817_1465">
<rect width="211" height="40" fill="white"/>
</clipPath>
</defs>
</svg>
