<svg width="136" height="40" viewBox="0 0 136 40" fill="none" xmlns="http://www.w3.org/2000/svg">
<path d="M14.4737 2.83607L10.5191 2.81629H4.38297C3.96115 2.81629 0.672269 2.84925 0.672269 2.84925L0.606365 7.6145L0 7.63427L0.0329467 2.28243L0.0131746 0.0810547C2.1025 0.166737 9.65572 0.232646 17.4923 0.232646C26.6274 0.232646 32.5131 0.146964 34.8331 0.0942369L34.8002 2.53288L34.8463 7.94405L34.2202 7.93086C34.2202 7.48927 34.1213 5.69653 34.1213 5.51858C34.1213 5.45267 33.9895 3.04698 33.9697 2.86902L31.3465 2.83607H20.4846V36.1994C20.4846 36.2455 20.5374 38.3876 20.5505 38.8292C20.8537 38.8753 23.7669 39.0467 24.2942 39.0467H24.4985V39.9496C24.3337 39.9496 24.1426 39.9628 23.9778 39.9628C22.3301 39.9431 19.6542 39.7717 17.756 39.7717C15.8578 39.7717 13.2478 39.9365 11.31 39.9628C11.2573 39.9628 10.8553 39.9496 10.7037 39.9496V38.9808C10.7037 38.9808 10.8421 38.9808 11.0266 38.9676C11.8439 38.9346 13.8739 38.816 14.4012 38.7765L14.4869 38.7633V35.9028L14.4671 2.82948L14.4737 2.83607Z" fill="white"/>
<path d="M64.8218 0.026608C64.8218 0.026608 67.7745 8.23233 68.2491 9.43847C68.7368 10.638 77.7598 31.4061 77.7598 31.4061C77.7598 31.4061 81.9978 22.4556 85.7744 12.8592C86.5389 10.9148 87.5408 8.38392 88.279 6.32755C89.3599 3.32208 90.5528 0.0332003 90.5528 0.0332003H92.8728C92.8728 0.0332003 93.4463 3.69776 93.6506 5.33891C94.2438 10.0976 98.1258 29.409 99.4836 35.7561C99.8263 37.3445 100.09 38.722 100.09 38.722C100.492 38.7418 102.061 38.8868 102.99 38.9593C103.181 38.9725 103.702 39.0054 103.82 39.0054V39.9677C103.82 39.9677 103.399 39.9875 103.161 39.9875C101.079 39.9743 97.8358 39.8029 95.8388 39.8029C94.0592 39.8029 92.3456 39.9413 90.566 39.9743C90.2628 39.9875 89.9596 39.9611 89.6499 39.9611V39.012C89.6499 39.012 89.9003 38.9988 90.0256 38.9988C90.9022 38.9659 93.1958 38.7616 93.4331 38.7484C93.4331 38.4057 93.3013 37.1929 93.1233 35.967C92.9915 35.1036 92.7806 33.614 92.5433 32.1574C92.0358 29.3233 89.6828 17.5453 88.9974 14.2762C88.8787 13.7358 88.8128 13.4326 88.8128 13.4326C88.8128 13.4326 81.543 30.1011 80.0798 33.3899C79.9414 33.7129 79.8294 33.937 79.7964 34.0161C78.3926 37.1731 77.2194 40.0007 77.2194 40.0007L75.1498 39.9875L63.8266 13.9467L63.5563 13.3403C63.5563 13.3403 62.5611 18.2242 61.1441 25.1051C60.3861 28.8224 58.824 38.1288 58.7186 38.7484C59.6216 38.867 61.3945 38.9988 61.8757 38.9857H62.3172V39.9216C62.1129 39.9413 61.6516 39.9545 61.6252 39.9545C59.9116 39.9216 58.679 39.8029 56.8402 39.8029C56.3524 39.8029 53.7886 39.9216 52.8856 39.9545C52.5099 39.9677 51.9827 39.9347 51.8706 39.9347V39.0054C51.9563 39.0054 52.1408 38.9725 52.2463 38.9725C53.0636 38.9395 54.3158 38.8341 55.3836 38.7022C55.4693 38.2475 56.3854 33.6536 56.6886 32.0256C57.8222 26.6474 61.1506 8.68051 61.5725 6.25505C61.9416 3.63185 62.3568 0.389111 62.4029 0.0200181C63.2993 0.0397909 64.8284 0.00683594 64.8284 0.00683594" fill="white"/>
<path d="M49.7748 39.9797C48.2457 39.9797 45.6357 39.7556 43.6848 39.7556C41.7338 39.7556 39.137 39.9797 37.2454 39.9797C37.0806 39.9797 36.8038 39.9467 36.6522 39.9467V38.9976C37.0213 38.9844 38.6888 38.8592 39.1568 38.8263C39.6972 38.7933 40.2047 38.7603 40.4288 38.6944C40.4288 38.6944 40.4288 37.5542 40.442 35.7812C40.4618 29.6583 40.5079 12.357 40.442 4.5336C40.4288 3.70314 40.4288 1.61381 40.4288 1.31063C40.0729 1.27767 39.5786 1.23813 39.2293 1.19199C38.7877 1.17222 36.962 1.02062 36.6522 1.00085L36.639 0.0517578C38.4515 0.0517578 41.1341 0.216531 43.3157 0.216531C45.4973 0.216531 48.2193 0.0517578 50.3548 0.0517578V1.04699C50.0186 1.06676 49.1882 1.1129 49.1684 1.1129C48.5423 1.16563 46.8089 1.33699 46.3739 1.36995V4.40837C46.3739 11.4145 46.3607 29.7637 46.3607 35.9262V37.9299C46.3607 38.4044 46.3607 38.6878 46.3739 38.7076C46.387 38.7406 47.4745 38.8394 47.7316 38.846C48.2193 38.8922 50.2032 38.9778 50.2559 38.9844H50.3877V39.9335C50.2164 39.9467 49.9 39.9797 49.7748 39.9797Z" fill="white"/>
<path d="M114.814 2.91978L114.801 18.6194L126.072 18.6524C126.124 18.6524 129.057 18.5667 129.123 18.5799C129.308 18.5799 131.311 18.4744 131.39 18.448C131.39 18.448 131.423 18.2833 131.463 18.1646C131.628 17.2155 131.832 16.3126 131.885 15.6073C131.885 15.6073 131.938 15.3042 131.938 15.0998L132.577 15.0867C132.577 15.1592 132.61 15.3437 132.61 15.5942C132.597 16.5433 132.524 18.5074 132.524 19.786C132.524 21.6381 132.59 23.3122 132.597 24.1558C132.61 24.3931 132.583 24.7819 132.583 24.7819H131.885C131.872 24.6962 131.865 24.5974 131.839 24.4985C131.707 23.4308 131.615 22.6728 131.43 21.5853C131.43 21.5326 131.384 21.3349 131.377 21.2096C131.021 21.1899 130.072 21.1569 129.565 21.1437C129.347 21.1306 126.599 21.124 123.508 21.1108C122.249 21.1108 119.968 21.1635 119 21.1635C117.866 21.1635 116.001 21.2294 114.781 21.269L114.794 35.5054L114.847 37.3377L121.682 37.4431L131.43 37.4299C131.476 37.4299 133.664 37.3574 134.343 37.364C134.482 37.364 134.772 37.3443 134.772 37.3443C134.838 36.8829 134.91 35.9536 134.996 35.0572C135.009 34.9517 135.246 32.5856 135.246 31.9529L135.853 31.9397C135.853 32.5461 135.721 39.9938 135.721 39.9938C134.62 39.9938 131.259 39.9938 127.08 39.9411C124.556 39.9081 121.741 39.9081 118.973 39.8752C116.719 39.8422 114.498 39.7763 112.468 39.7763C109.581 39.7763 106.754 39.9477 105.653 39.9477C105.402 39.9477 104.961 39.9279 104.869 39.9279V38.992H105.073C105.752 38.992 107.749 38.8865 108.784 38.7086C108.784 38.524 108.849 36.1974 108.849 36.1513V5.35184C108.849 3.9282 108.817 1.55546 108.817 1.33796C108.237 1.27205 108.019 1.2391 107.9 1.21932C107.274 1.14682 106.048 1.04796 105.389 1.00182C105.205 1.00182 105 0.982048 104.895 0.968866C104.895 0.968866 104.895 0.052727 104.882 0.0329542C105.033 0.0461361 105.336 0.019772 105.897 0.019772C107.063 0.019772 109.199 0.184545 111.809 0.184545C113.45 0.184545 116.1 0.112044 117.998 0.0856804C120.707 0.0856804 122.756 0.0659081 125.373 0.0527262C129.657 0.0329534 133.302 0 134.732 0H135.378V0.250454C135.378 0.540455 135.365 1.06773 135.365 1.70705C135.378 3.69092 135.431 6.82162 135.431 7.83003H134.824L134.811 7.54662C134.745 6.84798 134.62 4.88389 134.455 3.23615C134.442 3.08456 134.409 2.9791 134.409 2.9791C134.053 2.96592 132.583 2.92638 132.564 2.9066C132.544 2.88683 131.377 2.87365 131.344 2.86047C131.331 2.86047 127.508 2.84069 123.567 2.82751C120.871 2.82751 118.228 2.84069 116.6 2.84069C116.231 2.85388 114.801 2.89342 114.801 2.89342" fill="white"/>
</svg>
