<svg width="24" height="24" viewBox="0 0 24 24" fill="none" xmlns="http://www.w3.org/2000/svg">
<path d="M14.62 22H9.38C5.31 22 2 18.69 2 14.62V9.38C2 5.31 5.31 2 9.38 2H14.62C18.69 2 22 5.31 22 9.38V14.62C22 18.69 18.69 22 14.62 22ZM9.38 4C6.41 4 4 6.41 4 9.38V14.62C4 17.59 6.41 20 9.38 20H14.62C17.59 20 20 17.59 20 14.62V9.38C20 6.41 17.59 4 14.62 4H9.38ZM13 16V8.5C13 7.95 12.55 7.5 12 7.5C11.45 7.5 11 7.95 11 8.5V16C11 16.55 11.45 17 12 17C12.55 17 13 16.55 13 16ZM9 16V13.5C9 12.95 8.55 12.5 8 12.5C7.45 12.5 7 12.95 7 13.5V16C7 16.55 7.45 17 8 17C8.55 17 9 16.55 9 16ZM17 16V11C17 10.45 16.55 10 16 10C15.45 10 15 10.45 15 11V16C15 16.55 15.45 17 16 17C16.55 17 17 16.55 17 16Z" fill="#191919"/>
</svg>
