<svg width="24" height="24" viewBox="0 0 24 24" fill="none" xmlns="http://www.w3.org/2000/svg">
<path d="M21 17H18.32C18.76 16.07 19 15.05 19 14C19 10.14 15.86 7 12 7C8.14 7 5 10.14 5 14C5 15.05 5.24 16.07 5.68 17H3C2.45 17 2 17.45 2 18C2 18.55 2.45 19 3 19H16.45C16.46 19 16.46 19 16.47 19H16.48H21C21.55 19 22 18.55 22 18C22 17.45 21.55 17 21 17ZM12 9C14.76 9 17 11.24 17 14C17 15.09 16.63 16.14 15.97 17H8.01C7.97 16.95 7.93 16.91 7.9 16.86C7.31 16.02 7 15.03 7 14C7 11.24 9.24 9 12 9ZM19 21C19 21.55 18.55 22 18 22H6C5.45 22 5 21.55 5 21C5 20.45 5.45 20 6 20H18C18.55 20 19 20.45 19 21ZM11 5V3C11 2.45 11.45 2 12 2C12.55 2 13 2.45 13 3V5C13 5.55 12.55 6 12 6C11.45 6 11 5.55 11 5ZM3.51 6.93C3.12 6.54 3.12 5.91 3.51 5.52C3.9 5.13 4.53 5.13 4.92 5.52L6.33 6.93C6.72 7.32 6.72 7.95 6.33 8.34C6.13 8.54 5.88 8.63 5.62 8.63C5.36 8.63 5.11 8.53 4.91 8.34L3.51 6.93ZM3 15H1C0.45 15 0 14.55 0 14C0 13.45 0.45 13 1 13H3C3.55 13 4 13.45 4 14C4 14.55 3.55 15 3 15ZM24 14C24 14.55 23.55 15 23 15H21C20.45 15 20 14.55 20 14C20 13.45 20.45 13 21 13H23C23.55 13 24 13.45 24 14ZM17.66 8.34C17.27 7.95 17.27 7.32 17.66 6.93L19.07 5.52C19.46 5.13 20.09 5.13 20.48 5.52C20.87 5.91 20.87 6.54 20.48 6.93L19.07 8.34C18.87 8.54 18.62 8.63 18.36 8.63C18.1 8.63 17.85 8.54 17.66 8.34Z" fill="#191919"/>
</svg>
