<svg width="36" height="36" viewBox="0 0 36 36" fill="none" xmlns="http://www.w3.org/2000/svg">
<path fill-rule="evenodd" clip-rule="evenodd" d="M34.3697 21C34.3697 17.595 32.0567 14.619 28.7462 13.761C27.9437 13.545 27.1247 14.034 26.9177 14.8365C26.7107 15.6375 27.1922 16.4565 27.9932 16.6635C29.9807 17.1795 31.3697 18.963 31.3697 21C31.3697 23.481 29.3507 25.5 26.8697 25.5H19.3697C16.8887 25.5 14.8697 23.481 14.8697 21C14.8697 18.519 16.8887 16.5 19.3697 16.5C20.1992 16.5 20.8697 15.8295 20.8697 15C20.8697 14.1705 20.1992 13.5 19.3697 13.5C15.2342 13.5 11.8697 16.8645 11.8697 21C11.8697 25.1355 15.2342 28.5 19.3697 28.5H26.8697C31.0052 28.5 34.3697 25.1355 34.3697 21ZM18.0002 22.5C17.1707 22.5 16.5002 21.8295 16.5002 21C16.5002 20.1705 17.1707 19.5 18.0002 19.5C20.4812 19.5 22.5002 17.481 22.5002 15C22.5002 12.519 20.4812 10.5 18.0002 10.5H10.5002C8.01924 10.5 6.00024 12.519 6.00024 15C6.00024 17.037 7.38924 18.8205 9.37674 19.3365C10.1777 19.5435 10.6592 20.3625 10.4522 21.1635C10.2437 21.966 9.42474 22.452 8.62374 22.239C5.31324 21.381 3.00024 18.405 3.00024 15C3.00024 10.8645 6.36474 7.5 10.5002 7.5H18.0002C22.1357 7.5 25.5002 10.8645 25.5002 15C25.5002 19.1355 22.1357 22.5 18.0002 22.5Z" fill="#74C947"/>
</svg>
