<svg width="30" height="30" viewBox="0 0 30 30" fill="none" xmlns="http://www.w3.org/2000/svg">
<rect width="30" height="30" rx="15" fill="#F5F5F5"/>
<g clip-path="url(#clip0_3345_10790)">
<path d="M16.4 15L20.7 10.7C21.1 10.3 21.1 9.7 20.7 9.3C20.3 8.9 19.7 8.9 19.3 9.3L15 13.6L10.7 9.3C10.3 8.9 9.7 8.9 9.3 9.3C8.9 9.7 8.9 10.3 9.3 10.7L13.6 15L9.3 19.3C8.9 19.7 8.9 20.3 9.3 20.7C9.5 20.9 9.7 21 10 21C10.3 21 10.5 20.9 10.7 20.7L15 16.4L19.3 20.7C19.5 20.9 19.7 21 20 21C20.3 21 20.5 20.9 20.7 20.7C21.1 20.3 21.1 19.7 20.7 19.3L16.4 15Z" fill="#191919"/>
</g>
<defs>
<clipPath id="clip0_3345_10790">
<rect width="12" height="12" fill="white" transform="translate(9 9)"/>
</clipPath>
</defs>
</svg>
