<svg width="24" height="24" viewBox="0 0 24 24" fill="none" xmlns="http://www.w3.org/2000/svg">
<path d="M20.0002 6.00024C20.0002 7.6571 18.6571 9.00024 17.0002 9.00024C16.2741 9.00024 15.6083 8.74228 15.0893 8.31299L9.94063 11.4022C9.97972 11.5955 10.0002 11.7955 10.0002 12.0002C10.0002 12.205 9.97972 12.405 9.94063 12.5983L15.0893 15.6875C15.6083 15.2582 16.2741 15.0002 17.0002 15.0002C18.6571 15.0002 20.0002 16.3434 20.0002 18.0002C20.0002 19.6571 18.6571 21.0002 17.0002 21.0002C15.3434 21.0002 14.0002 19.6571 14.0002 18.0002C14.0002 17.7955 14.0208 17.5955 14.0599 17.4022L8.91118 14.313C8.39222 14.7423 7.72636 15.0002 7.00024 15.0002C5.34339 15.0002 4.00024 13.6571 4.00024 12.0002C4.00024 10.3434 5.34339 9.00024 7.00024 9.00024C7.72636 9.00024 8.39222 9.25821 8.91118 9.68749L14.0599 6.59828C14.0208 6.40503 14.0002 6.20503 14.0002 6.00024C14.0002 4.34339 15.3434 3.00024 17.0002 3.00024C18.6571 3.00024 20.0002 4.34339 20.0002 6.00024Z" fill="#74C947"/>
</svg>
