<svg width="36" height="36" viewBox="0 0 36 36" fill="none" xmlns="http://www.w3.org/2000/svg">
<path fill-rule="evenodd" clip-rule="evenodd" d="M25.1578 14.2798C25.1644 14.4383 25.1681 14.5978 25.1681 14.7582C25.1681 19.6383 21.4539 25.2646 14.6617 25.2646C12.5761 25.2646 10.6351 24.6537 9 23.6062C9.28915 23.6398 9.58296 23.6575 9.88144 23.6575C11.6117 23.6575 13.2039 23.0671 14.4677 22.0765C12.8513 22.0467 11.4876 20.9787 11.0184 19.5115C11.2432 19.5553 11.4746 19.5786 11.7124 19.5786C12.0491 19.5786 12.3756 19.5329 12.6853 19.449C10.9961 19.1095 9.72381 17.6171 9.72381 15.8281C9.72381 15.8122 9.72381 15.7964 9.72381 15.7815C10.2219 16.0576 10.7909 16.2236 11.3962 16.2432C10.4056 15.5809 9.75365 14.4504 9.75365 13.1698C9.75365 12.4926 9.93554 11.8584 10.2536 11.3127C12.0752 13.5466 14.796 15.0176 17.8648 15.1715C17.8023 14.901 17.7696 14.6193 17.7696 14.3292C17.7696 12.2902 19.4224 10.6365 21.4623 10.6365C22.5247 10.6365 23.4845 11.0851 24.1579 11.8033C24.9993 11.6373 25.7893 11.3304 26.5028 10.907C26.2277 11.7688 25.6419 12.4926 24.879 12.9497C25.6261 12.8611 26.3378 12.6624 27 12.3686C26.5047 13.1092 25.8788 13.7593 25.1578 14.2798Z" fill="#74C947"/>
</svg>
