<svg width="25" height="24" viewBox="0 0 25 24" fill="none" xmlns="http://www.w3.org/2000/svg">
<path fill-rule="evenodd" clip-rule="evenodd" d="M11.982 15.375L17.207 10.15C17.597 9.76 17.597 9.127 17.207 8.736C16.816 8.346 16.183 8.346 15.793 8.736L11.275 13.254L9.606 11.586C9.215 11.195 8.583 11.195 8.192 11.586C7.801 11.977 7.801 12.609 8.192 13L10.568 15.375C10.763 15.57 11.019 15.668 11.275 15.668C11.531 15.668 11.787 15.57 11.982 15.375ZM12.5 2C6.977 2 2.5 6.478 2.5 12C2.5 17.522 6.977 22 12.5 22C18.022 22 22.5 17.522 22.5 12C22.5 6.478 18.022 2 12.5 2ZM12.5 4C16.911 4 20.5 7.589 20.5 12C20.5 16.411 16.911 20 12.5 20C8.088 20 4.5 16.411 4.5 12C4.5 7.589 8.088 4 12.5 4Z" fill="#74C947"/>
</svg>
