<svg width="24" height="24" viewBox="0 0 24 24" fill="none" xmlns="http://www.w3.org/2000/svg">
<path fill-rule="evenodd" clip-rule="evenodd" d="M12.8535 3.0036C14.7495 3.2786 16.5005 4.1126 17.9185 5.4156C19.5095 6.8776 20.5645 8.8526 20.8895 10.9746C20.9085 11.0976 20.8745 11.2186 20.7975 11.3086C20.7495 11.3636 20.6645 11.4316 20.5305 11.4316H12.8395C12.6375 11.4316 12.4735 11.2676 12.4735 11.0656V3.3746C12.4735 3.2626 12.5225 3.1556 12.6085 3.0816C12.6535 3.0426 12.7215 3.0006 12.8115 3.0006C12.8255 3.0006 12.8385 3.0016 12.8535 3.0036ZM22.3155 12.6106C22.7735 12.0776 22.9735 11.3716 22.8665 10.6716C22.4725 8.1016 21.1965 5.7116 19.2725 3.9426C17.5565 2.3666 15.4365 1.3576 13.1405 1.0246C12.4855 0.9256 11.8105 1.1256 11.2995 1.5686C10.7745 2.0236 10.4735 2.6816 10.4735 3.3746V11.0656C10.4735 12.3696 11.5355 13.4316 12.8395 13.4316H20.5305C21.2175 13.4316 21.8685 13.1326 22.3155 12.6106ZM11.4735 22.9046C5.6985 22.9046 0.999496 18.2066 0.999496 12.4316C0.999496 8.4576 3.2045 4.8746 6.7515 3.0796C7.2445 2.8296 7.8445 3.0276 8.0955 3.5216C8.3445 4.0136 8.1475 4.6146 7.6545 4.8646C4.7835 6.3166 2.9995 9.2166 2.9995 12.4316C2.9995 17.1046 6.8005 20.9046 11.4735 20.9046C14.6675 20.9046 17.5585 19.1376 19.0185 16.2936C19.2705 15.8026 19.8745 15.6076 20.3645 15.8596C20.8565 16.1116 21.0495 16.7146 20.7975 17.2056C18.9945 20.7216 15.4215 22.9046 11.4735 22.9046Z" fill="#191919"/>
</svg>
